<svg width="27" height="21" viewBox="0 0 27 21" fill="none" xmlns="http://www.w3.org/2000/svg">
<path d="M16.852 10.7358L18.3855 9.14553C18.4971 9.57843 18.5625 10.031 18.5625 10.5C18.5625 13.395 16.2915 15.75 13.5 15.75C13.0477 15.75 12.6113 15.6822 12.1939 15.5665L13.7274 13.9762C15.4041 13.8576 16.7377 12.4747 16.852 10.7358ZM26.8937 10.075C26.7899 9.8814 25.318 7.20675 22.4408 4.94007L21.2129 6.21341C23.3109 7.81313 24.6402 9.67884 25.1636 10.5013C24.1635 12.0805 20.2405 17.5 13.5 17.5C12.4892 17.5 11.5492 17.3659 10.6648 17.152L9.2783 18.5898C10.553 18.9952 11.954 19.25 13.5 19.25C22.3326 19.25 26.7116 11.2648 26.8937 10.9251C27.0354 10.6606 27.0354 10.3395 26.8937 10.075ZM23.3778 1.49368L4.81528 20.7436C4.65054 20.9145 4.43454 21 4.21875 21C4.00296 21 3.78696 20.9145 3.62222 20.7436C3.29252 20.4017 3.29252 19.8481 3.62222 19.5064L5.98387 17.0573C2.16591 14.667 0.225914 11.1484 0.106312 10.9251C-0.0354375 10.6606 -0.0354375 10.3392 0.106312 10.0748C0.288352 9.73528 4.66741 1.75005 13.5 1.75005C15.7838 1.75005 17.762 2.29036 19.4531 3.08923L22.1847 0.256429C22.5144 -0.0854763 23.0483 -0.0854763 23.3778 0.256429C23.7073 0.598334 23.7075 1.15199 23.3778 1.49368ZM7.24212 15.7524L9.37828 13.5371C8.78829 12.6788 8.4375 11.6321 8.4375 10.5C8.4375 7.6051 10.7085 5.25004 13.5 5.25004C14.5916 5.25004 15.6009 5.61382 16.4287 6.22544L18.156 4.43411C16.7913 3.86733 15.2404 3.50005 13.5 3.50005C6.75949 3.50005 2.83648 8.91956 1.83663 10.4987C2.47155 11.4966 4.29659 14.0228 7.24212 15.7524ZM10.6032 12.2666L15.2035 7.49594C14.7017 7.1886 14.124 7.00004 13.5 7.00004C11.6391 7.00004 10.125 8.57022 10.125 10.5C10.125 11.1471 10.3068 11.7462 10.6032 12.2666Z" fill="#4C708E"/>
</svg>
