<svg width="75" height="75" viewBox="0 0 75 75" fill="none" xmlns="http://www.w3.org/2000/svg">
<path d="M63.2812 35.1562H11.7188C11.7188 31.2891 14.8828 28.125 18.75 28.125H56.25C60.1172 28.125 63.2812 31.2891 63.2812 35.1562Z" fill="#4C708E"/>
<path d="M63.2812 67.9688C63.2812 71.8359 60.1172 75 56.25 75H18.75C14.8828 75 11.7188 71.8359 11.7188 67.9688H63.2812Z" fill="#4C708E"/>
<path d="M30.4688 30.4688V16.4062C30.4688 12.5229 33.6166 9.375 37.5 9.375C41.3834 9.375 44.5312 12.5229 44.5312 16.4062V30.4688H53.9062V16.4062C53.9062 7.34531 46.5609 0 37.5 0C28.4391 0 21.0938 7.34531 21.0938 16.4062V30.4688H30.4688Z" fill="#4C708E"/>
<path d="M65.625 39.8438H9.375C6.79688 39.8438 4.6875 41.9531 4.6875 44.5312V58.5938C4.6875 61.1719 6.79688 63.2812 9.375 63.2812H65.625C68.2031 63.2812 70.3125 61.1719 70.3125 58.5938V44.5312C70.3125 41.9531 68.2031 39.8438 65.625 39.8438ZM16.4062 56.25C13.8281 56.25 11.7188 54.1406 11.7188 51.5625C11.7188 48.9844 13.8281 46.875 16.4062 46.875C18.9844 46.875 21.0938 48.9844 21.0938 51.5625C21.0938 54.1406 18.9844 56.25 16.4062 56.25ZM30.4688 56.25C27.8906 56.25 25.7812 54.1406 25.7812 51.5625C25.7812 48.9844 27.8906 46.875 30.4688 46.875C33.0469 46.875 35.1562 48.9844 35.1562 51.5625C35.1562 54.1406 33.0469 56.25 30.4688 56.25ZM44.5312 56.25C41.9531 56.25 39.8438 54.1406 39.8438 51.5625C39.8438 48.9844 41.9531 46.875 44.5312 46.875C47.1094 46.875 49.2188 48.9844 49.2188 51.5625C49.2188 54.1406 47.1094 56.25 44.5312 56.25ZM58.5938 56.25C56.0156 56.25 53.9062 54.1406 53.9062 51.5625C53.9062 48.9844 56.0156 46.875 58.5938 46.875C61.1719 46.875 63.2812 48.9844 63.2812 51.5625C63.2812 54.1406 61.1719 56.25 58.5938 56.25Z" fill="#4C708E"/>
</svg>
