<svg width="252" height="252" viewBox="0 0 252 252" fill="none" xmlns="http://www.w3.org/2000/svg">
<circle cx="126" cy="126" r="126" fill="#C8D3DC"/>
<mask id="mask0_307_9667" style="mask-type:alpha" maskUnits="userSpaceOnUse" x="0" y="0" width="252" height="252">
<circle cx="126" cy="126" r="126" fill="#EDEFF0"/>
</mask>
<g mask="url(#mask0_307_9667)">
<g clip-path="url(#clip0_307_9667)">
<path d="M84.1656 95.0243C84.1656 95.0243 77.6803 93.3499 75.3932 93.4831C73.4398 94.0138 76.3434 103.942 76.3434 103.942L84.1667 106.829L89.0884 102.57L84.1667 95.0243H84.1656Z" fill="#FFB499"/>
<path d="M83.0587 117.668C83.0587 117.668 74.6719 114.875 70.801 115.371C66.9302 115.866 73.7576 136.13 73.7576 136.13L83.4347 143.678L90.8914 135.862L88.1975 121.856L84.689 118.604L83.0597 117.666L83.0587 117.668Z" fill="#FFB499"/>
<path d="M91.1742 151.132C91.1742 151.132 74.159 135.585 67.6133 137.758C62.8813 140.155 61.2573 144.453 70.9895 157.462C85.0565 177.786 92.3172 187.431 92.3172 187.431L91.1742 151.132Z" fill="#FFB499"/>
<path d="M92.972 130.915C92.972 130.915 75.4007 114.76 68.855 116.934C64.0562 118.994 72.1315 124.21 82.815 135.59C96.1076 155.421 93.7665 166.714 93.7665 166.714L92.972 130.915Z" fill="#FFB499"/>
<path d="M103.916 86.0025C103.916 86.0025 87.1614 72.8705 80.2608 68.3737C76.979 66.1571 69.6314 66.5218 68.7225 73.7172C68.59 75.8071 69.0975 78.5882 71.7967 81.7489C81.9176 93.7297 98.9561 108.424 98.9561 108.424L103.917 86.0025H103.916Z" fill="#FFCDBA"/>
<path d="M89.8596 185.121C120.075 225.27 127.196 229.889 142.539 235.643C157.187 241.136 176.791 223.638 176.791 223.638V186.285L147.297 187.44L89.8596 185.121Z" fill="#FFCDBA"/>
<path d="M155.43 56.9922H83.0437V181.07H155.43V56.9922Z" fill="white"/>
<path d="M157.106 51.127H83.5354V64.8921H157.106V51.127Z" fill="#ADBDCB"/>
<path d="M157.107 64.8916H82.387V71.9898H157.107V64.8916Z" fill="#C8D3DC"/>
<path d="M96.7347 193.114C96.7347 193.114 136.24 193.495 148.562 206.468C154.895 194.768 150.153 187.431 150.153 187.431L143.482 178.244H99.6543C93.7792 181.098 89.8596 184.269 89.8596 184.269L96.7347 193.114Z" fill="#FFB499"/>
<path d="M150.074 39H89.5132C84.3584 39 80.1401 42.9492 80.1401 47.7758L80.2196 178.655C80.2196 183.482 84.4368 187.431 89.5926 187.431H150.152C155.307 187.431 159.525 183.482 159.525 178.655L159.446 47.7758C159.446 42.9492 155.227 39 150.073 39H150.074ZM155.465 167.565C155.465 171.734 151.822 175.146 147.368 175.146H92.3787C87.9263 175.146 84.2832 171.734 84.2832 167.565V61.6805C84.2832 57.5114 87.9263 54.1003 92.3787 54.1003H147.368C151.82 54.1003 155.465 57.5114 155.465 61.6805V167.564V167.565Z" fill="#2A3E4E"/>
<path d="M129.449 47.7755H108.819C108.367 47.7755 108.002 47.4108 108.002 46.9605C108.002 46.5102 108.367 46.1455 108.819 46.1455H129.449C129.901 46.1455 130.266 46.5102 130.266 46.9605C130.266 47.4108 129.901 47.7755 129.449 47.7755Z" fill="#C8D3DC"/>
<path d="M104.639 59.1562H97.0017C96.7203 59.1562 96.4922 59.3839 96.4922 59.6647V60.2778C96.4922 60.5586 96.7203 60.7863 97.0017 60.7863H104.639C104.92 60.7863 105.148 60.5586 105.148 60.2778V59.6647C105.148 59.3839 104.92 59.1562 104.639 59.1562Z" fill="white"/>
<path d="M94.2654 59.1562H90.4624C90.2588 59.1562 90.0938 59.3209 90.0938 59.5241V60.4184C90.0938 60.6216 90.2588 60.7863 90.4624 60.7863H94.2654C94.469 60.7863 94.6341 60.6216 94.6341 60.4184V59.5241C94.6341 59.3209 94.469 59.1562 94.2654 59.1562Z" fill="white"/>
<path d="M140.038 61.0306C140.625 60.4452 140.625 59.4962 140.038 58.9108C139.451 58.3254 138.5 58.3254 137.914 58.9108C137.327 59.4962 137.327 60.4452 137.914 61.0306C138.5 61.616 139.451 61.616 140.038 61.0306Z" fill="white"/>
<path d="M144.39 61.3562C145.156 61.0394 145.52 60.1626 145.203 59.3978C144.885 58.6329 144.007 58.2697 143.24 58.5865C142.474 58.9033 142.11 59.7802 142.427 60.545C142.745 61.3098 143.623 61.673 144.39 61.3562Z" fill="white"/>
<path d="M149.717 61.0306C150.304 60.4452 150.304 59.4962 149.717 58.9108C149.131 58.3254 148.18 58.3254 147.593 58.9108C147.006 59.4962 147.006 60.4452 147.593 61.0306C148.18 61.616 149.131 61.616 149.717 61.0306Z" fill="white"/>
<path d="M81.9177 142.689C86.8998 147.695 88.2314 153.295 84.6572 156.836C81.084 160.377 74.9504 157.919 69.9683 152.912C63.2119 146.948 61.9534 142.283 65.6505 138.39C69.8825 134.067 75.3106 136.187 81.9177 142.688V142.689Z" fill="#FFCDBA"/>
<path d="M73.4281 145.312C71.8645 146.923 71.6113 149.817 74.301 152.431C75.3645 153.465 76.1633 153.692 77.0086 154.294C79.2301 155.872 80.7036 154.664 81.9907 153.208C83.1592 151.886 84.3403 150.486 82.6539 148.387C82.0702 147.578 81.7873 147.236 80.3244 145.853C77.9928 143.649 75.0266 143.631 73.4281 145.313V145.312Z" fill="#FFB499"/>
<path d="M72.5712 121.278C70.872 122.746 69.7809 125.867 72.2322 128.705C73.2015 129.827 75.0681 131.355 75.8573 132.027C78.0289 133.877 79.2885 131.463 80.6593 129.96C81.7864 128.723 84.0025 128.5 82.5841 126.377C82.0735 125.52 80.7292 123.923 79.3944 122.418C77.2651 120.019 74.3117 119.742 72.5712 121.278Z" fill="#879FB3"/>
<path d="M78.4124 118.817C78.4124 118.817 73.3859 113.657 68.5341 115.946C64.3825 118.097 63.2268 121.607 63.0223 123.522C62.8804 124.85 63.3761 127.99 66.1315 130.904C69.8286 134.816 72.9484 136.832 75.7397 137.824C76.9018 138.152 81.0333 138.41 83.7865 135.643C86.3374 133.08 86.9348 129.903 85.0969 126.235C84.2833 124.438 78.4135 118.816 78.4135 118.816L78.4124 118.817Z" fill="#FFCDBA"/>
<path d="M75.8837 133.237C76.3721 131.722 77.9335 128.133 81.8372 127.766C82.2006 127.732 82.3976 127.325 82.1942 127.023C80.9357 125.155 79.2206 123.829 77.995 123.068C77.2174 122.635 74.5818 121.177 71.943 123.729C68.7024 127.15 71.5679 131.204 75.0193 133.581C75.3403 133.78 75.7682 133.596 75.8837 133.237Z" fill="#FFB499"/>
<path d="M68.4356 97.0599C69.3095 95.9141 71.7037 94.3285 73.174 93.9004C76.4008 92.8845 78.3065 93.8179 79.208 94.9046C80.7748 96.7915 83.4157 101.963 83.8426 103.545C84.2696 105.128 85.2908 109.502 82.135 112.612C78.3542 115.846 73.9855 114.621 73.1708 114.376C72.5691 114.194 69.514 113.195 67.622 107.378C65.2438 100.623 67.6718 98.0621 68.4356 97.0599Z" fill="#FFCDBA"/>
<path d="M71.3212 110.258C71.3212 110.258 67.1548 104.164 70.8127 100.735C75.7026 96.6943 79.4114 102.956 79.4114 102.956C79.4114 102.956 79.8584 103.565 79.1264 103.687C78.3944 103.808 72.3488 103.308 71.8742 109.634C71.9144 110.486 71.3212 110.259 71.3212 110.259V110.258Z" fill="#FFB499"/>
<path d="M208.227 252C198.343 230.501 186.848 204.693 187.192 201.393C189.775 177.091 194.3 163.487 185.777 139.05C175.834 115.355 172.56 91.4642 171.959 86.479C171.889 85.8987 171.434 85.4378 170.854 85.3628C167.468 84.9283 156.639 84.7729 157.107 100.653C157.107 113.216 160.368 118.738 159.197 145.355C156.977 157.782 146.535 181.098 147.85 202.028C149.216 223.767 135.813 226.408 135.813 226.408C141.155 234.396 145.42 242.961 149.529 252H208.227Z" fill="#FFCDBA"/>
<path d="M171.914 86.0755C172.842 92.1537 173.99 99.1452 173.99 99.1452C173.99 99.1452 166.45 100.813 166.114 90.2933C165.765 85.3863 171.678 84.4942 171.914 86.0755Z" fill="#FFB499"/>
<path d="M97.3644 121.304C96.6604 121.304 95.9991 121.229 95.3804 121.08C94.7618 120.931 94.2178 120.701 93.7484 120.392C93.2898 120.083 92.9271 119.683 92.6604 119.192C92.4044 118.701 92.2764 118.12 92.2764 117.448C92.2764 116.755 92.4204 116.141 92.7084 115.608C92.9964 115.085 93.3644 114.627 93.8124 114.232C94.2604 113.827 94.7351 113.464 95.2364 113.144C95.7484 112.813 96.2284 112.499 96.6764 112.2C97.1244 111.901 97.4924 111.597 97.7804 111.288C98.0684 110.968 98.2124 110.616 98.2124 110.232C98.2124 110.093 98.1751 109.965 98.1004 109.848C98.0364 109.72 97.9244 109.619 97.7644 109.544C97.6151 109.459 97.4018 109.416 97.1244 109.416C96.9431 109.416 96.7564 109.437 96.5644 109.48C96.3724 109.512 96.1858 109.56 96.0044 109.624C95.8231 109.677 95.6524 109.747 95.4924 109.832C95.7698 110.056 96.0418 110.307 96.3084 110.584C96.5858 110.851 96.8364 111.112 97.0604 111.368C97.2951 111.613 97.4764 111.827 97.6044 112.008C97.8498 112.136 98.1164 112.253 98.4044 112.36C98.6924 112.456 98.9964 112.541 99.3164 112.616C99.6471 112.691 99.9884 112.749 100.34 112.792C100.692 112.824 101.055 112.84 101.428 112.84C101.834 112.84 102.122 112.947 102.292 113.16C102.463 113.363 102.548 113.619 102.548 113.928C102.548 114.259 102.436 114.536 102.212 114.76C101.988 114.973 101.674 115.08 101.268 115.08C100.383 115.08 99.6258 115.016 98.9964 114.888C98.3778 114.76 97.8178 114.568 97.3164 114.312C96.8258 114.045 96.3191 113.72 95.7964 113.336C95.6684 113.112 95.4818 112.867 95.2364 112.6C94.9911 112.323 94.7404 112.061 94.4844 111.816C94.2391 111.571 94.0311 111.379 93.8604 111.24C93.8284 111.208 93.7751 111.101 93.7004 110.92C93.6258 110.728 93.5564 110.525 93.4924 110.312C93.4391 110.099 93.4124 109.949 93.4124 109.864C93.4124 109.651 93.5138 109.411 93.7164 109.144C93.9191 108.867 94.2018 108.605 94.5644 108.36C94.9378 108.104 95.3698 107.896 95.8604 107.736C96.3511 107.565 96.8844 107.48 97.4604 107.48C98.5058 107.48 99.2578 107.704 99.7164 108.152C100.186 108.589 100.42 109.155 100.42 109.848C100.42 110.488 100.276 111.059 99.9884 111.56C99.7111 112.061 99.3484 112.52 98.9004 112.936C98.4524 113.352 97.9778 113.736 97.4764 114.088C96.9858 114.44 96.5164 114.781 96.0684 115.112C95.6204 115.453 95.2524 115.795 94.9644 116.136C94.6871 116.488 94.5484 116.867 94.5484 117.272C94.5484 117.613 94.6338 117.896 94.8044 118.12C94.9858 118.355 95.2151 118.541 95.4924 118.68C95.7698 118.819 96.0738 118.915 96.4044 118.968C96.7458 119.032 97.0764 119.064 97.3964 119.064C97.7271 119.064 98.0684 119.037 98.4204 118.984C98.7831 118.931 99.1564 118.845 99.5404 118.728C99.9351 118.621 100.34 118.483 100.756 118.312L101.428 120.232C101.023 120.445 100.591 120.632 100.132 120.792C99.6738 120.963 99.2098 121.091 98.7404 121.176C98.2711 121.261 97.8124 121.304 97.3644 121.304ZM109.561 115.288C108.569 115.288 107.743 115.245 107.081 115.16C106.431 115.075 105.903 114.952 105.497 114.792C105.092 114.632 104.772 114.44 104.537 114.216C104.303 113.992 104.111 113.747 103.961 113.48L104.409 113.352C104.143 113.864 103.839 114.243 103.497 114.488C103.156 114.733 102.799 114.893 102.425 114.968C102.052 115.043 101.668 115.08 101.273 115.08L101.433 112.84C101.764 112.84 102.025 112.787 102.217 112.68C102.409 112.573 102.564 112.397 102.681 112.152C102.809 111.907 102.927 111.581 103.033 111.176C103.14 110.771 103.268 110.275 103.417 109.688L105.449 110.184C105.375 110.472 105.311 110.723 105.257 110.936C105.215 111.149 105.177 111.336 105.145 111.496C105.124 111.645 105.113 111.768 105.113 111.864C105.113 112.067 105.161 112.248 105.257 112.408C105.353 112.557 105.54 112.68 105.817 112.776C106.095 112.861 106.5 112.931 107.033 112.984C107.577 113.027 108.287 113.048 109.161 113.048C110.089 113.048 110.863 113.016 111.481 112.952C112.1 112.877 112.591 112.776 112.953 112.648C113.327 112.509 113.593 112.344 113.753 112.152C113.913 111.949 113.993 111.72 113.993 111.464C113.993 111.261 113.945 111.075 113.849 110.904C113.764 110.723 113.62 110.573 113.417 110.456C113.215 110.339 112.953 110.28 112.633 110.28C112.249 110.28 111.86 110.376 111.465 110.568C111.081 110.749 110.703 110.995 110.329 111.304C109.956 111.603 109.599 111.939 109.257 112.312C108.927 112.685 108.628 113.059 108.361 113.432L105.961 113.16C106.377 112.488 106.847 111.843 107.369 111.224C107.892 110.605 108.452 110.061 109.049 109.592C109.647 109.112 110.265 108.733 110.905 108.456C111.545 108.179 112.196 108.04 112.857 108.04C113.572 108.04 114.18 108.179 114.681 108.456C115.183 108.733 115.567 109.117 115.833 109.608C116.1 110.099 116.233 110.664 116.233 111.304C116.233 112.083 116.009 112.771 115.561 113.368C115.124 113.965 114.415 114.435 113.433 114.776C112.463 115.117 111.172 115.288 109.561 115.288ZM112.393 106.552C112.063 106.552 111.78 106.44 111.545 106.216C111.321 105.992 111.209 105.715 111.209 105.384C111.209 105.053 111.321 104.771 111.545 104.536C111.78 104.301 112.063 104.184 112.393 104.184C112.713 104.184 112.985 104.301 113.209 104.536C113.444 104.771 113.561 105.053 113.561 105.384C113.561 105.715 113.444 105.992 113.209 106.216C112.985 106.44 112.713 106.552 112.393 106.552ZM117.764 118.68L117.3 116.44C118.057 116.344 118.718 116.227 119.284 116.088C119.849 115.96 120.324 115.779 120.708 115.544C121.092 115.309 121.38 114.989 121.572 114.584C121.764 114.168 121.86 113.635 121.86 112.984C121.86 112.749 121.838 112.515 121.796 112.28C121.753 112.035 121.689 111.811 121.604 111.608C121.518 111.405 121.406 111.24 121.268 111.112C121.14 110.984 120.985 110.92 120.804 110.92C120.612 110.92 120.441 110.989 120.292 111.128C120.142 111.256 120.025 111.421 119.94 111.624C119.854 111.816 119.812 112.013 119.812 112.216C119.812 112.365 119.849 112.493 119.924 112.6C119.998 112.696 120.11 112.771 120.26 112.824C120.409 112.867 120.596 112.888 120.82 112.888C121.076 112.888 121.337 112.861 121.604 112.808C121.881 112.744 122.132 112.659 122.356 112.552L122.42 114.296C122.164 114.499 121.87 114.68 121.54 114.84C121.209 114.989 120.809 115.064 120.34 115.064C119.956 115.064 119.598 115.021 119.268 114.936C118.937 114.84 118.644 114.696 118.388 114.504C118.142 114.312 117.95 114.067 117.812 113.768C117.673 113.459 117.604 113.091 117.604 112.664C117.604 112.141 117.689 111.635 117.86 111.144C118.03 110.653 118.265 110.216 118.564 109.832C118.873 109.437 119.225 109.128 119.62 108.904C120.025 108.669 120.452 108.552 120.9 108.552C121.433 108.552 121.897 108.685 122.292 108.952C122.697 109.219 123.033 109.571 123.3 110.008C123.566 110.435 123.769 110.899 123.908 111.4C124.046 111.901 124.116 112.381 124.116 112.84C124.116 114.045 123.86 115.069 123.348 115.912C122.836 116.755 122.105 117.405 121.156 117.864C120.206 118.333 119.076 118.605 117.764 118.68ZM129.835 121.288C129.59 120.413 129.387 119.581 129.227 118.792C129.067 118.013 128.95 117.304 128.875 116.664C128.801 116.035 128.763 115.507 128.763 115.08C128.763 114.131 128.913 113.288 129.211 112.552C129.521 111.805 129.915 111.165 130.395 110.632C130.886 110.088 131.409 109.64 131.963 109.288C132.529 108.936 133.073 108.675 133.595 108.504C134.129 108.333 134.582 108.248 134.955 108.248C135.339 108.248 135.654 108.349 135.899 108.552C136.155 108.755 136.379 109.048 136.571 109.432C136.774 109.805 136.987 110.259 137.211 110.792C137.467 111.368 137.691 111.805 137.883 112.104C138.086 112.392 138.294 112.589 138.507 112.696C138.721 112.792 138.961 112.84 139.227 112.84C139.633 112.84 139.926 112.947 140.107 113.16C140.289 113.363 140.379 113.619 140.379 113.928C140.379 114.259 140.267 114.536 140.043 114.76C139.819 114.973 139.494 115.08 139.067 115.08C138.545 115.08 138.091 114.995 137.707 114.824C137.323 114.643 136.977 114.387 136.667 114.056L137.115 113.56C137.019 113.891 136.886 114.189 136.715 114.456C136.555 114.712 136.337 114.915 136.059 115.064C135.793 115.213 135.457 115.288 135.051 115.288C134.689 115.288 134.326 115.235 133.963 115.128C133.611 115.021 133.265 114.861 132.923 114.648C132.593 114.435 132.273 114.173 131.963 113.864C131.654 113.544 131.361 113.176 131.083 112.76L131.675 112.648C131.441 113.011 131.27 113.416 131.163 113.864C131.057 114.312 131.003 114.755 131.003 115.192C131.003 115.533 131.03 115.928 131.083 116.376C131.147 116.835 131.227 117.315 131.323 117.816C131.419 118.328 131.526 118.829 131.643 119.32C131.771 119.821 131.894 120.28 132.011 120.696L129.835 121.288ZM135.019 113.032C135.222 113.032 135.382 113.005 135.499 112.952C135.627 112.888 135.707 112.797 135.739 112.68C135.782 112.563 135.771 112.424 135.707 112.264C135.601 111.976 135.494 111.725 135.387 111.512C135.291 111.299 135.195 111.117 135.099 110.968C135.014 110.819 134.923 110.707 134.827 110.632C134.742 110.557 134.651 110.52 134.555 110.52C134.417 110.52 134.246 110.568 134.043 110.664C133.841 110.749 133.638 110.856 133.435 110.984C133.233 111.112 133.062 111.24 132.923 111.368C132.785 111.485 132.705 111.576 132.683 111.64L132.491 111.112C132.683 111.485 132.913 111.821 133.179 112.12C133.457 112.408 133.755 112.632 134.075 112.792C134.395 112.952 134.71 113.032 135.019 113.032ZM139.102 115.08L139.262 112.84C139.902 112.84 140.392 112.808 140.734 112.744C141.075 112.68 141.31 112.563 141.438 112.392C141.576 112.211 141.646 111.955 141.646 111.624C141.646 111.325 141.603 110.968 141.518 110.552C141.443 110.136 141.342 109.704 141.214 109.256C141.096 108.808 140.968 108.397 140.83 108.024L143.038 107.416C143.176 107.779 143.31 108.2 143.438 108.68C143.566 109.16 143.672 109.656 143.758 110.168C143.843 110.669 143.886 111.155 143.886 111.624C143.886 112.349 143.768 112.941 143.534 113.4C143.299 113.848 142.968 114.195 142.542 114.44C142.126 114.685 141.624 114.856 141.038 114.952C140.451 115.037 139.806 115.08 139.102 115.08ZM143.438 106.12C143.128 106.12 142.862 106.013 142.638 105.8C142.424 105.576 142.318 105.315 142.318 105.016C142.318 104.707 142.424 104.44 142.638 104.216C142.862 103.992 143.128 103.88 143.438 103.88C143.736 103.88 143.992 103.992 144.206 104.216C144.419 104.44 144.526 104.707 144.526 105.016C144.526 105.315 144.419 105.576 144.206 105.8C143.992 106.013 143.736 106.12 143.438 106.12ZM140.67 106.104C140.36 106.104 140.094 105.997 139.87 105.784C139.656 105.56 139.55 105.299 139.55 105C139.55 104.691 139.656 104.424 139.87 104.2C140.094 103.976 140.36 103.864 140.67 103.864C140.968 103.864 141.224 103.976 141.438 104.2C141.651 104.424 141.758 104.691 141.758 105C141.758 105.299 141.651 105.56 141.438 105.784C141.224 105.997 140.968 106.104 140.67 106.104ZM99.2238 135.52C98.4665 135.52 97.7678 135.355 97.1278 135.024C96.4878 134.704 95.9758 134.197 95.5918 133.504C95.2078 132.821 95.0158 131.941 95.0158 130.864C95.0158 129.915 95.1278 129.045 95.3518 128.256C95.5758 127.456 95.8798 126.768 96.2638 126.192C96.6585 125.605 97.1011 125.152 97.5918 124.832C98.0825 124.512 98.5998 124.352 99.1438 124.352C99.5491 124.352 99.9331 124.469 100.296 124.704C100.658 124.928 100.957 125.259 101.192 125.696C101.426 126.133 101.544 126.667 101.544 127.296C101.544 127.637 101.474 128.021 101.336 128.448C101.197 128.875 100.952 129.28 100.6 129.664C100.258 130.037 99.7785 130.336 99.1598 130.56L99.5438 129.296C99.8851 129.424 100.253 129.531 100.648 129.616C101.042 129.691 101.448 129.749 101.864 129.792C102.29 129.824 102.706 129.84 103.112 129.84C103.517 129.84 103.805 129.947 103.976 130.16C104.157 130.363 104.248 130.619 104.248 130.928C104.248 131.259 104.136 131.536 103.912 131.76C103.688 131.973 103.368 132.08 102.952 132.08C102.664 132.08 102.328 132.053 101.944 132C101.57 131.936 101.202 131.867 100.84 131.792C100.488 131.707 100.189 131.632 99.9438 131.568L101.656 131.328C101.901 131.627 102.072 131.957 102.168 132.32C102.264 132.693 102.28 133.067 102.216 133.44C102.152 133.813 101.997 134.155 101.752 134.464C101.517 134.784 101.186 135.04 100.76 135.232C100.344 135.424 99.8318 135.52 99.2238 135.52ZM94.4398 132.08C94.0025 132.08 93.6025 132.043 93.2398 131.968C92.8771 131.883 92.5198 131.765 92.1678 131.616L92.7278 129.568C93.1011 129.664 93.4318 129.733 93.7198 129.776C94.0185 129.819 94.3065 129.84 94.5838 129.84C94.8825 129.84 95.1225 129.84 95.3038 129.84C95.4958 129.829 95.6931 129.813 95.8958 129.792L95.9598 131.936C95.6931 131.979 95.4371 132.011 95.1918 132.032C94.9465 132.064 94.6958 132.08 94.4398 132.08ZM99.1598 133.312C99.3731 133.312 99.5491 133.275 99.6878 133.2C99.8265 133.136 99.9278 133.04 99.9918 132.912C100.066 132.795 100.104 132.661 100.104 132.512C100.104 132.384 100.061 132.24 99.9758 132.08C99.8905 131.92 99.7305 131.781 99.4958 131.664C99.2611 131.536 98.9251 131.472 98.4878 131.472C98.3278 131.472 98.1518 131.483 97.9598 131.504C97.7785 131.525 97.5811 131.557 97.3678 131.6C97.1545 131.632 96.9358 131.675 96.7118 131.728L96.7918 129.808C97.1971 129.776 97.5598 129.712 97.8798 129.616C98.1998 129.509 98.4665 129.371 98.6798 129.2C98.9038 129.019 99.0745 128.8 99.1918 128.544C99.3091 128.288 99.3678 127.989 99.3678 127.648C99.3678 127.477 99.3518 127.312 99.3198 127.152C99.2878 126.981 99.2398 126.843 99.1758 126.736C99.1118 126.619 99.0318 126.56 98.9358 126.56C98.7651 126.56 98.5838 126.656 98.3918 126.848C98.1998 127.04 98.0185 127.317 97.8478 127.68C97.6771 128.032 97.5331 128.459 97.4158 128.96C97.3091 129.451 97.2558 130 97.2558 130.608C97.2558 131.12 97.3091 131.552 97.4158 131.904C97.5225 132.245 97.6665 132.517 97.8478 132.72C98.0291 132.933 98.2318 133.083 98.4558 133.168C98.6905 133.264 98.9251 133.312 99.1598 133.312ZM102.961 132.08L103.121 129.84C103.526 129.84 103.846 129.803 104.081 129.728C104.326 129.653 104.518 129.504 104.657 129.28C104.806 129.045 104.929 128.704 105.025 128.256C105.132 127.808 105.238 127.211 105.345 126.464L107.441 126.816C107.42 126.976 107.388 127.163 107.345 127.376C107.313 127.589 107.281 127.808 107.249 128.032C107.228 128.245 107.217 128.448 107.217 128.64C107.217 128.896 107.27 129.115 107.377 129.296C107.494 129.467 107.697 129.6 107.985 129.696C108.284 129.792 108.71 129.84 109.265 129.84C109.67 129.84 109.958 129.947 110.129 130.16C110.3 130.363 110.385 130.619 110.385 130.928C110.385 131.259 110.273 131.536 110.049 131.76C109.836 131.973 109.521 132.08 109.105 132.08C108.369 132.08 107.772 132.011 107.313 131.872C106.854 131.733 106.513 131.499 106.289 131.168C106.065 130.837 105.921 130.384 105.857 129.808H106.625C106.433 130.32 106.209 130.731 105.953 131.04C105.697 131.339 105.409 131.563 105.089 131.712C104.769 131.861 104.428 131.957 104.065 132C103.713 132.053 103.345 132.08 102.961 132.08ZM106.225 124.832C105.894 124.832 105.612 124.72 105.377 124.496C105.153 124.272 105.041 123.995 105.041 123.664C105.041 123.333 105.153 123.051 105.377 122.816C105.612 122.581 105.894 122.464 106.225 122.464C106.545 122.464 106.817 122.581 107.041 122.816C107.276 123.051 107.393 123.333 107.393 123.664C107.393 123.995 107.276 124.272 107.041 124.496C106.817 124.72 106.545 124.832 106.225 124.832ZM119.566 132.08C119.075 132.08 118.616 132.043 118.19 131.968C117.774 131.893 117.39 131.765 117.038 131.584C116.686 131.392 116.371 131.131 116.094 130.8C115.827 130.469 115.603 130.053 115.422 129.552L116.686 128.544C116.878 128.885 117.112 129.152 117.39 129.344C117.667 129.525 117.998 129.653 118.382 129.728C118.766 129.803 119.214 129.84 119.726 129.84C120.131 129.84 120.419 129.947 120.59 130.16C120.76 130.363 120.846 130.619 120.846 130.928C120.846 131.259 120.734 131.536 120.51 131.76C120.296 131.973 119.982 132.08 119.566 132.08ZM109.102 132.08L109.262 129.84C109.838 129.84 110.408 129.808 110.974 129.744C111.539 129.68 112.088 129.584 112.622 129.456C113.155 129.328 113.662 129.163 114.142 128.96C114.632 128.757 115.091 128.512 115.518 128.224C115.198 128.032 114.851 127.867 114.478 127.728C114.104 127.589 113.704 127.488 113.278 127.424C112.862 127.349 112.419 127.312 111.95 127.312C111.779 127.312 111.598 127.317 111.406 127.328C111.224 127.339 111.038 127.36 110.846 127.392C110.654 127.413 110.462 127.445 110.27 127.488L109.95 125.296C110.259 125.211 110.584 125.152 110.926 125.12C111.278 125.077 111.587 125.056 111.854 125.056C112.43 125.056 112.958 125.12 113.438 125.248C113.928 125.376 114.376 125.536 114.782 125.728C115.198 125.92 115.582 126.112 115.934 126.304C116.296 126.496 116.638 126.656 116.958 126.784C117.288 126.912 117.608 126.976 117.918 126.976H118.51L118.766 129.104C118.307 129.125 117.875 129.216 117.47 129.376C117.075 129.525 116.68 129.717 116.286 129.952C115.902 130.176 115.486 130.411 115.038 130.656C114.6 130.901 114.104 131.131 113.55 131.344C112.995 131.557 112.355 131.733 111.63 131.872C110.904 132.011 110.062 132.08 109.102 132.08ZM119.57 132.08L119.73 129.84C120.082 129.84 120.37 129.813 120.594 129.76C120.818 129.696 121 129.563 121.138 129.36C121.288 129.147 121.416 128.832 121.522 128.416C121.64 127.989 121.768 127.413 121.906 126.688L123.986 127.072C123.944 127.307 123.885 127.6 123.81 127.952C123.746 128.304 123.714 128.608 123.714 128.864C123.714 129.067 123.752 129.243 123.826 129.392C123.912 129.531 124.05 129.643 124.242 129.728C124.445 129.803 124.722 129.84 125.074 129.84C125.352 129.84 125.586 129.813 125.778 129.76C125.981 129.696 126.152 129.563 126.29 129.36C126.44 129.147 126.568 128.821 126.674 128.384C126.792 127.936 126.904 127.333 127.01 126.576L129.122 126.912C129.08 127.157 129.037 127.419 128.994 127.696C128.952 127.973 128.914 128.229 128.882 128.464C128.85 128.699 128.834 128.891 128.834 129.04C128.834 129.179 128.872 129.312 128.946 129.44C129.032 129.557 129.181 129.653 129.394 129.728C129.618 129.803 129.928 129.84 130.322 129.84C130.802 129.84 131.154 129.739 131.378 129.536C131.613 129.323 131.73 129.003 131.73 128.576C131.73 128.331 131.725 128.069 131.714 127.792C131.704 127.504 131.682 127.184 131.65 126.832C131.629 126.469 131.586 126.059 131.522 125.6L133.586 125.44C133.661 126.357 133.746 127.104 133.842 127.68C133.938 128.256 134.066 128.704 134.226 129.024C134.397 129.333 134.621 129.547 134.898 129.664C135.186 129.781 135.56 129.84 136.018 129.84C136.424 129.84 136.712 129.947 136.882 130.16C137.064 130.363 137.154 130.619 137.154 130.928C137.154 131.259 137.042 131.536 136.818 131.76C136.605 131.973 136.285 132.08 135.858 132.08C135.57 132.08 135.272 132.053 134.962 132C134.653 131.957 134.354 131.867 134.066 131.728C133.778 131.579 133.522 131.365 133.298 131.088C133.074 130.811 132.898 130.443 132.77 129.984L133.058 130.08C132.909 130.613 132.706 131.024 132.45 131.312C132.194 131.6 131.88 131.803 131.506 131.92C131.133 132.027 130.685 132.08 130.162 132.08C129.682 132.08 129.256 132.016 128.882 131.888C128.509 131.76 128.21 131.552 127.986 131.264C127.773 130.965 127.661 130.565 127.65 130.064H128.194C127.981 130.661 127.736 131.104 127.458 131.392C127.181 131.68 126.845 131.867 126.45 131.952C126.056 132.037 125.56 132.08 124.962 132.08C124.6 132.08 124.242 132.043 123.89 131.968C123.538 131.883 123.224 131.696 122.946 131.408C122.669 131.109 122.466 130.64 122.338 130L123.202 129.968C122.978 130.597 122.685 131.061 122.322 131.36C121.97 131.659 121.565 131.856 121.106 131.952C120.648 132.037 120.136 132.08 119.57 132.08ZM127.778 122.176C127.512 122.176 127.277 122.075 127.074 121.872C126.882 121.669 126.786 121.429 126.786 121.152C126.786 120.875 126.882 120.64 127.074 120.448C127.277 120.256 127.512 120.16 127.778 120.16C128.056 120.16 128.29 120.256 128.482 120.448C128.674 120.64 128.77 120.875 128.77 121.152C128.77 121.429 128.674 121.669 128.482 121.872C128.29 122.075 128.056 122.176 127.778 122.176ZM126.498 124.288C126.232 124.288 125.997 124.187 125.794 123.984C125.602 123.781 125.506 123.541 125.506 123.264C125.506 122.987 125.602 122.752 125.794 122.56C125.997 122.368 126.232 122.272 126.498 122.272C126.776 122.272 127.01 122.368 127.202 122.56C127.394 122.752 127.49 122.987 127.49 123.264C127.49 123.541 127.394 123.781 127.202 123.984C127.01 124.187 126.776 124.288 126.498 124.288ZM128.978 124.288C128.712 124.288 128.477 124.187 128.274 123.984C128.082 123.781 127.986 123.541 127.986 123.264C127.986 122.987 128.082 122.752 128.274 122.56C128.477 122.368 128.712 122.272 128.978 122.272C129.256 122.272 129.49 122.368 129.682 122.56C129.874 122.752 129.97 122.987 129.97 123.264C129.97 123.541 129.874 123.781 129.682 123.984C129.49 124.187 129.256 124.288 128.978 124.288ZM135.867 132.08L136.027 129.84C136.518 129.84 136.87 129.792 137.083 129.696C137.297 129.589 137.425 129.397 137.467 129.12C137.51 128.832 137.521 128.416 137.499 127.872L137.211 120.288H139.467L139.787 128.032C139.809 128.651 139.782 129.211 139.707 129.712C139.643 130.203 139.478 130.624 139.211 130.976C138.955 131.328 138.555 131.6 138.011 131.792C137.478 131.984 136.763 132.08 135.867 132.08ZM141.897 132L141.561 120.288H143.801L144.137 132H141.897Z" fill="#2A3E4E"/>
</g>
</g>
<defs>
<clipPath id="clip0_307_9667">
<rect width="145.227" height="213" fill="white" transform="translate(63 39)"/>
</clipPath>
</defs>
</svg>
