<svg width="252" height="282" viewBox="0 0 252 282" fill="none" xmlns="http://www.w3.org/2000/svg">
<circle cx="126" cy="156" r="126" fill="#C8D3DC"/>
<path d="M127 123.904L120.594 166.119L127 240L190.675 218.893V145.012L127 123.904Z" fill="#E8551E"/>
<path d="M63.3247 145.012V218.893L127 240V123.904L63.3247 145.012Z" fill="#FF7D4D"/>
<path d="M108.675 195.226L127 166.119L63.3248 145.012L45 174.119L108.675 195.226Z" fill="#FFB499"/>
<path d="M145.325 195.226L127 166.119L190.675 145.012L209 174.119L145.325 195.226Z" fill="#FF7D4D"/>
<g clip-path="url(#clip0_307_9584)">
<path d="M143 95C129.192 95 118 106.192 118 120C118 133.806 129.192 145 143 145C156.808 145 168 133.806 168 120C168 106.192 156.808 95 143 95Z" fill="#2A3E4E"/>
<path d="M128.206 128.688C132.038 132.015 136.234 135.107 141.878 135.109C141.988 135.109 142.098 135.107 142.213 135.104C145.803 135.021 149.864 133.809 153.017 131.829L153.036 131.816C153.448 131.568 153.863 131.288 154.25 130.976C154.494 130.796 154.659 130.518 154.659 130.226C154.65 129.705 154.209 129.355 153.734 129.355C153.586 129.354 153.431 129.388 153.286 129.459C153.125 129.523 152.958 129.596 152.803 129.663L152.572 129.76L152.275 129.88V129.882C149.033 131.196 145.627 131.968 142.475 132.038C142.359 132.041 142.244 132.041 142.128 132.041C137.172 132.043 133.127 129.743 129.048 127.477C128.905 127.402 128.759 127.363 128.617 127.363C128.431 127.363 128.245 127.432 128.108 127.56C127.97 127.688 127.889 127.876 127.891 128.066C127.891 128.316 128.022 128.543 128.206 128.688Z" fill="#FEFEFE"/>
<path d="M158.105 127.52C158.092 127.205 158.027 126.966 157.894 126.767L157.881 126.747L157.866 126.727C157.731 126.58 157.603 126.527 157.464 126.464C157.052 126.305 156.449 126.22 155.725 126.219C155.203 126.219 154.627 126.269 154.05 126.394L154.049 126.356L153.469 126.548L153.459 126.555L153.131 126.661V126.675C152.745 126.834 152.395 127.036 152.07 127.269C151.867 127.422 151.699 127.622 151.689 127.928C151.684 128.095 151.77 128.289 151.911 128.403C152.052 128.517 152.214 128.555 152.358 128.555C152.394 128.555 152.425 128.553 152.455 128.548L152.48 128.547L152.503 128.542C152.786 128.481 153.202 128.442 153.686 128.373C154.102 128.328 154.542 128.292 154.924 128.292C155.194 128.292 155.438 128.311 155.605 128.347C155.689 128.366 155.75 128.386 155.786 128.405C155.799 128.409 155.808 128.412 155.811 128.417C155.819 128.441 155.828 128.5 155.827 128.584C155.833 128.903 155.695 129.498 155.511 130.077C155.33 130.656 155.108 131.237 154.963 131.623C154.927 131.712 154.908 131.811 154.908 131.917C154.903 132.072 154.967 132.259 155.102 132.386C155.231 132.509 155.402 132.561 155.544 132.561H155.55C155.764 132.558 155.945 132.472 156.103 132.35C157.578 131.022 158.091 128.903 158.113 127.713L158.105 127.52Z" fill="#FEFEFE"/>
<path d="M144.617 113.296C143.75 113.362 142.748 113.428 141.748 113.561C140.214 113.764 138.681 114.029 137.414 114.631C134.947 115.631 133.278 117.765 133.278 120.901C133.278 124.839 135.812 126.84 139.016 126.84C140.083 126.84 140.95 126.704 141.748 126.507C143.017 126.106 144.081 125.373 145.352 124.037C146.084 125.037 146.284 125.506 147.552 126.573C147.884 126.704 148.219 126.704 148.484 126.509C149.287 125.84 150.686 124.639 151.417 123.971C151.753 123.706 151.684 123.304 151.483 122.973C150.752 122.039 150.017 121.237 150.017 119.434V113.429C150.017 110.893 150.217 108.557 148.352 106.825C146.819 105.425 144.417 104.889 142.55 104.889H141.75C138.35 105.087 134.748 106.556 133.947 110.761C133.812 111.295 134.216 111.493 134.481 111.559L138.214 112.026C138.616 111.959 138.817 111.625 138.881 111.293C139.216 109.825 140.416 109.09 141.75 108.957H142.019C142.819 108.957 143.684 109.292 144.152 109.959C144.684 110.761 144.62 111.826 144.62 112.762L144.617 113.296ZM143.884 121.234C143.417 122.165 142.617 122.765 141.75 122.97C141.616 122.97 141.417 123.034 141.216 123.034C139.75 123.034 138.883 121.898 138.883 120.232C138.883 118.095 140.152 117.095 141.752 116.628C142.619 116.429 143.619 116.359 144.62 116.359V117.161C144.617 118.7 144.683 119.9 143.884 121.234Z" fill="#FEFEFE"/>
</g>
<mask id="mask0_307_9584" style="mask-type:luminance" maskUnits="userSpaceOnUse" x="68" y="12" width="54" height="61">
<path d="M121.374 18.432L75.6638 12L68.0001 66.4635L113.711 72.8955L121.374 18.432Z" fill="white"/>
</mask>
<g mask="url(#mask0_307_9584)">
<path d="M83.1049 46.5212C82.4111 46.8699 78.9263 47.5532 79.476 43.6467L81.255 31.0034L77.2837 30.4446L75.5298 42.9096C74.2479 52.0193 84.398 50.4886 86.7614 49.3169L89.1791 32.135L85.2078 31.5762L83.1049 46.5212ZM74.9477 17.09L71.1706 43.9327C69.3961 56.5436 77.9674 61.6509 90.8435 69.5293C105.345 65.5032 115.037 62.9989 116.816 50.3556L120.593 23.5129C107.496 14.033 87.1751 12.6613 74.9477 17.09ZM114.709 50.0591C113.226 60.5952 106.298 62.9594 91.1651 67.2438C77.7719 58.9289 71.779 54.763 73.2616 44.2269L75.4238 28.8605C89.4621 19.1985 105.29 20.6653 118.408 23.7675L114.709 50.0591ZM91.0639 33.4251L87.4236 59.2952L91.3949 59.854L92.5696 51.5062C95.4104 52.8151 101.334 52.4253 102.634 43.186C104.301 31.3369 94.1953 31.9647 91.0639 33.4251ZM93.028 48.2481L94.7432 36.0587C95.8374 35.6837 99.6282 35.1757 98.5676 42.713C97.4089 50.9474 93.2575 48.3796 93.028 48.2481ZM104.118 39.097C103.325 44.8536 109.664 45.1505 109.252 48.5474C108.915 51.4093 105.164 50.8153 102.992 48.2781L102.476 51.9414C106.518 55.1715 112.29 54.3306 113.163 49.2961C114.254 43.069 107.378 42.713 107.915 39.4826C108.327 37.0279 111.979 37.5086 113.854 40.0372L114.34 36.5846C111.266 33.4081 104.807 34.086 104.118 39.097Z" fill="#2A3E4E"/>
</g>
<g clip-path="url(#clip1_307_9584)">
<path d="M214.858 15.0914C214.637 14.2491 214.041 13.5437 213.231 13.193L209.674 11.6539C209.683 11.2892 209.667 10.9216 209.624 10.5527C209.466 9.18552 208.951 7.93063 208.093 6.82272C206.726 5.05694 204.873 4.00689 202.731 3.78604C200.652 3.57271 198.642 4.16447 196.919 5.49826L183.621 15.7924C182.727 16.4841 182.372 17.6121 182.612 18.6527C181.613 18.6738 180.608 18.8492 179.608 19.185C177.955 19.7412 176.49 20.698 175.254 22.0311C173.977 23.4096 173.137 24.9518 172.735 26.6368C171.754 25.9902 170.439 25.9965 169.465 26.7502L166.553 29.0045C165.671 29.687 165.31 30.7949 165.532 31.8239L165.07 31.6788C164.191 31.4027 163.236 31.5721 162.511 32.1329L155.558 37.5155C154.928 38.0032 154.564 38.7079 154.488 39.4459C153.755 39.3341 152.981 39.51 152.351 39.9977L149.423 42.2648C149.093 42.52 147.975 43.438 147.674 43.6716L144.778 45.9131C144.149 46.4003 143.784 47.1043 143.708 47.8418C142.975 47.7304 142.203 47.9066 141.573 48.3939L138.661 50.648C137.434 51.5983 137.216 53.3728 138.175 54.6113L147.067 66.0992C147.736 66.9627 148.8 67.3361 149.798 67.1621C149.902 68.5295 150.418 69.8375 151.33 71.0164C152.531 72.5674 153.888 73.2616 155.032 73.552L154.774 74.1957C154.267 75.4596 154.738 76.9141 155.893 77.6499C157.421 78.6242 159.119 79.0416 160.938 78.8903C162.676 78.747 164.389 78.0308 166.029 76.7619C167.846 75.3552 168.997 73.6871 169.45 71.804C169.607 71.1531 169.669 70.5049 169.637 69.8658L169.695 69.9408C170.654 71.1791 172.427 71.4128 173.654 70.4627C173.654 70.4627 177.676 67.3986 177.98 67.1635L181.192 64.6541C182.175 63.8937 182.537 62.573 182.083 61.4055L181.866 60.815L182.143 60.4707L182.757 60.7689C183.769 61.4521 185.197 61.5365 186.154 60.7951L189.196 58.5547C189.556 58.2767 190.663 57.3632 190.919 57.1647L193.868 54.8153C194.721 54.1548 195.085 53.0961 194.907 52.0959C195.831 52.5192 196.947 52.4322 197.8 51.7717L200.728 49.5055C201.718 48.7387 202.05 47.4354 201.638 46.31C204.028 46.3756 206.235 45.638 208.214 44.1067C210.068 42.6714 211.298 40.8666 211.886 38.7276C212.84 39.2485 214.047 39.1954 214.955 38.4922L217.883 36.2258C218.764 35.5436 219.125 34.4366 218.904 33.4082L219.364 33.5528C220.243 33.8288 221.198 33.6597 221.923 33.0989L224.18 31.3517C225.407 30.4014 225.625 28.6267 224.667 27.3885L215.726 15.8382C215.482 15.5231 215.185 15.274 214.858 15.0918" fill="white"/>
<path d="M164.293 74.5188C163.082 75.4559 161.879 75.9742 160.683 76.0728C159.487 76.1722 158.39 75.9044 157.393 75.2687L158.758 71.8632C159.976 72.557 161.124 72.4862 162.203 71.6506C163.097 70.9586 163.346 70.3561 162.949 69.8436C162.688 69.5056 162.219 69.4326 161.543 69.6243C161.255 69.7019 160.659 69.9189 159.753 70.2755C158.468 70.7781 157.305 70.9876 156.264 70.9046C155.223 70.8222 154.32 70.2855 153.553 69.2955C152.727 68.2286 152.438 67.0717 152.685 65.825C152.932 64.5785 153.622 63.5164 154.756 62.6384C155.716 61.8958 156.741 61.4629 157.831 61.3397C158.922 61.217 159.995 61.4324 161.052 61.9867L159.723 65.3377C158.699 64.7583 157.772 64.7894 156.944 65.4307C156.595 65.701 156.386 65.9774 156.318 66.2606C156.249 66.5439 156.3 66.7955 156.472 67.0169C156.669 67.2715 156.969 67.384 157.372 67.3545C157.776 67.3251 158.454 67.1278 159.407 66.7614C160.104 66.5378 160.674 66.3553 161.115 66.2138C161.556 66.0726 162.083 65.9801 162.695 65.9362C163.307 65.8925 163.874 66.0058 164.398 66.2762C164.922 66.5467 165.405 66.9671 165.846 67.5377C166.723 68.6708 167.011 69.8646 166.709 71.1183C166.407 72.3726 165.601 73.506 164.293 74.5188Z" fill="#2A3E4E"/>
<path d="M168.735 52.2136L170.945 55.0681L168.115 57.2583L174.847 65.954L171.919 68.2204L165.188 59.5247L162.358 61.7149L160.148 58.8604L168.735 52.2136Z" fill="#2A3E4E"/>
<path d="M186.022 38.8316L188.231 41.6862L185.402 43.8765L192.133 52.5722L189.205 54.8385L182.474 46.1429L179.645 48.3331L177.435 45.4785L186.022 38.8316Z" fill="#2A3E4E"/>
<path d="M190.051 35.7122L187.124 37.9785L196.064 49.5287L198.992 47.2624L190.051 35.7122Z" fill="#2A3E4E"/>
<path d="M209.391 36.8246C209.128 38.884 208.157 40.5637 206.478 41.8633C204.799 43.1629 202.93 43.6824 200.87 43.4209C198.81 43.1592 197.125 42.1814 195.814 40.4873C194.502 38.7933 193.978 36.9167 194.241 34.8573C194.504 32.7977 195.475 31.1182 197.154 29.8183C198.834 28.5183 200.703 27.9996 202.762 28.2611C204.822 28.5226 206.507 29.5004 207.819 31.1943C209.13 32.8882 209.654 34.7653 209.391 36.8246ZM201.351 39.8023C202.396 39.9351 203.36 39.6594 204.243 38.9757C205.126 38.2919 205.634 37.4281 205.768 36.3837C205.901 35.3397 205.614 34.3611 204.907 33.4481C204.2 32.535 203.325 32.0121 202.281 31.8792C201.236 31.7468 200.273 32.0221 199.389 32.7059C198.506 33.3896 197.998 34.2538 197.865 35.2978C197.731 36.3422 198.018 37.3209 198.725 38.2338C199.431 39.1467 200.307 39.6699 201.351 39.8023Z" fill="#2A3E4E"/>
<path d="M210.592 19.8122L213.503 17.5586L222.444 29.1088L220.187 30.8561L211.651 28.175L216.147 33.9831L213.219 36.2494L204.279 24.6992L206.552 22.9395L215.088 25.6204L210.592 19.8122Z" fill="#2A3E4E"/>
<path d="M170.968 50.4908L176.315 65.0128L179.517 62.5347L178.839 60.789L178.647 60.2974L181.555 56.6744L183.034 57.6778L184.506 58.672L187.551 56.315L174.692 47.6079L170.968 50.4906L170.968 50.4908ZM178.365 54.4588L177.023 56.1311L175.571 52.4457L178.365 54.4587L178.365 54.4588Z" fill="#2A3E4E"/>
<path d="M149.443 51.939L146.834 55.1892L146.373 54.5936L143.309 50.6366L140.398 52.8906L149.29 64.3786L152.202 62.1246L149.235 58.2919L151.844 55.0414L152.223 55.5301L155.407 59.6439L158.303 57.4024L149.41 45.9144L146.514 48.1559L149.443 51.939Z" fill="#2A3E4E"/>
<path d="M167.235 49.1687C166.96 50.5606 166.158 51.7712 164.827 52.8013C163.496 53.8313 162.122 54.3052 160.707 54.2221C159.291 54.1394 158.11 53.4871 157.164 52.2656L151.159 44.5078L154.088 42.2407L159.876 49.7179C160.625 50.6862 161.534 50.7568 162.603 49.929C163.673 49.1012 163.832 48.2039 163.082 47.2355L157.294 39.7584L160.223 37.4913L166.228 45.2491C167.174 46.4706 167.509 47.7773 167.235 49.1687Z" fill="#2A3E4E"/>
<path d="M168.289 31.2471L171.201 28.9928L180.145 40.547L177.887 42.2947L169.349 39.6127L173.846 45.4228L170.918 47.6899L161.974 36.1357L164.248 34.3754L172.787 37.0574L168.289 31.2471Z" fill="#2A3E4E"/>
<path d="M187.144 23.0134L188.228 24.0236C189.796 25.4846 190.613 27.1562 190.679 29.0385C190.746 30.9211 190.057 32.6416 188.613 34.1998C187.075 35.8592 185.277 36.7245 183.219 36.7962C181.161 36.8681 179.348 36.1731 177.781 34.7122C176.214 33.2517 175.383 31.4869 175.289 29.419C175.195 27.3513 175.875 25.5329 177.329 23.9642C178.248 22.9726 179.313 22.2733 180.526 21.8659C181.738 21.4587 182.931 21.3687 184.105 21.5954L183.295 25.1405C182.762 25.0399 182.205 25.0997 181.621 25.3198C181.038 25.5399 180.507 25.908 180.028 26.424C179.25 27.2642 178.887 28.2083 178.94 29.2566C178.992 30.3053 179.446 31.228 180.301 32.0247C181.125 32.793 182.068 33.1775 183.13 33.1773C184.193 33.1774 185.169 32.6967 186.06 31.7353C187.205 30.5008 187.492 29.2501 186.921 27.9826L184.529 30.5629L182.179 28.3715L187.145 23.0136L187.144 23.0134Z" fill="#2A3E4E"/>
<path d="M195.083 24.5492L199.517 21.1171L201.663 23.8902L194.301 29.5893L185.357 18.0352L192.638 12.3991L194.772 15.1557L190.419 18.5247L191.659 20.1258L195.602 17.0734L197.71 19.7967L193.767 22.849L195.083 24.5492Z" fill="#2A3E4E"/>
<path d="M208.99 18.2186L204.107 16.0334L203.06 16.8439L205.947 20.5742L203.018 22.8413L194.074 11.2871L198.655 7.74103C199.823 6.83757 201.093 6.4569 202.468 6.59831C203.842 6.74012 204.976 7.38831 205.871 8.54379C206.407 9.23704 206.725 10.0077 206.823 10.8556C206.921 11.7036 206.802 12.5303 206.466 13.3355L212.131 15.7868L208.99 18.2186L208.99 18.2186ZM199.111 11.7436L201.117 14.335L202.737 13.0814C203.106 12.8138 203.311 12.4703 203.352 12.051C203.394 11.6318 203.266 11.2293 202.968 10.8441C202.669 10.4588 202.312 10.2342 201.896 10.1694C201.479 10.1047 201.091 10.2114 200.731 10.4899L199.111 11.7436Z" fill="#2A3E4E"/>
</g>
<path d="M24.7305 74.731C24.5272 73.8017 24.1108 73.0099 23.6368 72.3157C23.1627 71.6215 22.5004 71.023 21.7474 70.5779C20.0881 69.5971 18.2923 69.4199 16.393 69.9908C14.4609 70.6174 12.9051 71.8805 11.7182 73.8885C10.5889 75.7989 10.2324 77.7708 10.6707 79.7987C11.109 81.8266 12.13 83.3145 13.7894 84.2954C14.5424 84.7405 15.2884 84.9745 16.0922 85.1109C16.8402 85.2143 17.7676 85.1416 18.7355 84.9047L17.9278 86.2712L21.1489 88.1753L28.7981 75.2349L25.563 73.3226L24.7305 74.731ZM19.264 82.037C18.1882 82.3608 17.1316 82.2066 16.1136 81.6049C15.1515 81.0361 14.5069 80.1847 14.2967 79.0443C14.0617 77.9457 14.2736 76.7915 14.933 75.6759C15.5924 74.5604 16.4685 73.874 17.5443 73.5502C18.62 73.2265 19.6349 73.356 20.6389 73.9494C21.6429 74.5429 22.3013 75.4026 22.5364 76.5011C22.7714 77.5997 22.4967 78.5099 21.8373 79.6255C21.209 80.8158 20.3873 81.7602 19.264 82.037ZM46.4418 87.5649C46.2385 86.6356 45.8221 85.8438 45.3481 85.1496C44.874 84.4554 44.2117 83.8569 43.4587 83.4118C41.7994 82.4309 40.0036 82.2538 38.1044 82.8246C36.2051 83.3955 34.6164 84.7144 33.4624 86.6666C32.3332 88.5769 31.9766 90.5489 32.415 92.5768C32.8533 94.6047 33.8743 96.0926 35.5337 97.0735C36.2867 97.5186 37.0327 97.7526 37.8365 97.889C38.5844 97.9924 39.5118 97.9197 40.4798 97.6827L39.672 99.0493L42.8932 100.953L50.5177 88.0548L47.2965 86.1508L46.4558 87.5731L46.4418 87.5649ZM40.9753 94.8709C39.8996 95.1946 38.8429 95.0404 37.8249 94.4387C36.8628 93.87 36.2183 93.0186 36.008 91.8782C35.773 90.7796 35.9849 89.6253 36.6443 88.5098C37.3037 87.3942 38.1798 86.7079 39.2556 86.3841C40.3314 86.0604 41.3462 86.1898 42.3502 86.7833C43.3542 87.3768 44.0127 88.2364 44.2477 89.335C44.4827 90.4336 44.2081 91.3438 43.5486 92.4593C42.9203 93.6497 42.0847 94.5858 40.9753 94.8709ZM69.7107 99.8329C69.2715 98.9524 68.5921 98.2873 67.6857 97.7515C66.7793 97.2158 65.8552 96.9329 64.9189 96.9252C63.9269 96.8844 62.9836 97.0795 62.0118 97.5776C62.0525 96.5856 61.9132 95.6753 61.4886 94.8975C61.0723 94.1057 60.4765 93.4901 59.6817 93.0202C58.8869 92.5504 58.085 92.2834 57.1925 92.1698C56.3558 92.0892 55.4924 92.181 54.572 92.4648L55.4622 90.9588L52.2271 89.0465L44.5779 101.987L47.799 103.891L51.2033 98.1319C51.9451 96.8769 52.5785 96.0282 53.1174 95.5941C53.6562 95.16 54.2686 94.9198 54.9291 94.821C55.5706 94.7863 56.1323 94.8548 56.69 95.1845C57.192 95.4812 57.5057 95.8737 57.6641 96.306C57.8644 96.7631 57.8763 97.3158 57.733 97.9085C57.5896 98.5012 57.1762 99.4234 56.4921 100.581L52.7993 106.828L56.0205 108.732L59.4742 102.889C60.1913 101.676 60.8247 100.827 61.3553 100.407C61.8859 99.987 62.5065 99.7329 63.0923 99.6652C63.7338 99.6304 64.3264 99.7738 64.8703 100.095C65.5814 100.516 65.9769 101.088 66.0427 101.804C66.0946 102.512 65.7103 103.64 64.8448 105.104L60.9707 111.658L64.1919 113.562L68.6594 106.004C69.5826 104.443 70.0804 103.25 70.194 102.358C70.3304 101.554 70.1581 100.699 69.7107 99.8329ZM77.7066 116.452C76.3532 116.799 75.0214 116.633 73.864 115.949C72.86 115.355 72.2326 114.571 71.8739 113.681C71.5483 112.736 71.589 111.744 71.9714 110.747L82.3041 116.855L82.6586 116.255C83.9114 114.136 84.2699 112.033 83.7815 109.994C83.3013 107.942 82.0154 106.297 80.0074 105.11C78.097 103.981 76.1479 103.713 74.1041 104.274C72.0743 104.843 70.4628 106.073 69.2758 108.081C68.1466 109.991 67.8458 111.996 68.326 114.049C68.8392 116.046 70.1251 117.69 72.0773 118.844C73.388 119.619 74.638 120.019 75.8722 120.128C77.1063 120.236 78.3133 120.009 79.5622 119.392L77.7066 116.452ZM75.8215 107.321C76.7736 107.207 77.7308 107.434 78.6371 107.97C79.4459 108.448 80.0835 109.088 80.4111 109.903C80.7387 110.717 80.8774 111.533 80.6522 112.36L73.6522 108.222C74.4681 107.669 75.2022 107.35 75.8215 107.321ZM90.7204 120.061L98.701 116.556L95.0197 114.379L90.4243 116.424L89.9858 111.404L86.2627 109.203L87.0061 117.941L78.1032 121.861L81.7845 124.037L87.308 121.6L87.8364 127.614L91.5455 129.807L90.7204 120.061ZM36.7902 79.4135C36.1906 79.059 35.6309 78.8599 35.0224 78.8389C34.4468 78.7621 33.7615 78.9027 32.8411 79.1866L33.4923 78.085L30.4245 76.2716L22.7753 89.2119L25.9964 91.116L29.9859 84.3669C31.4449 81.8988 32.8173 81.073 34.4767 82.0539C34.7835 82.2353 35.0015 82.4394 35.2367 82.7101C36.2744 82.1005 37.4079 81.6791 38.5084 81.3135C38.0749 80.4552 37.4874 79.8256 36.7902 79.4135Z" fill="#2A3E4E"/>
<path d="M7.55281 91.5038L7.24604 91.3224L7.27399 90.925C6.81884 90.9946 6.37957 90.942 6.03096 90.7359C5.5708 90.4639 5.27102 90.0797 5.1684 89.6803C5.00113 89.1675 5.14447 88.5748 5.53188 87.9194C6.27372 86.6645 7.1384 86.3476 8.19817 86.9741C8.54677 87.1802 8.85163 87.4921 9.05187 87.9491C9.05379 87.8186 9.11149 87.721 9.17743 87.6094L10.0924 86.0616L10.5944 86.3583L7.55281 91.5038ZM7.41542 90.4629L8.69303 88.3015C8.5327 87.9998 8.34827 87.8343 8.30643 87.8096C8.14418 87.6384 8.01552 87.5059 7.86214 87.4152C7.51353 87.2092 7.20483 87.1584 6.8473 87.2858C6.54554 87.4461 6.24187 87.737 5.94513 88.239C5.37638 89.2011 5.42826 89.9092 6.18125 90.3543C6.52099 90.4799 6.91844 90.5078 7.41542 90.4629Z" fill="#2A3E4E"/>
<path d="M12.3855 92.1776L9.76395 90.628C9.49194 91.0882 9.41645 91.4387 9.4462 91.7385C9.48419 92.0244 9.72503 92.3173 10.1155 92.5481C10.6175 92.8448 11.0149 92.8728 11.4162 92.6396L11.761 93.1068C11.2132 93.4604 10.6047 93.4394 9.8517 92.9943C9.29393 92.6646 8.93838 92.2475 8.86872 91.7923C8.79906 91.3372 8.90944 90.8003 9.29685 90.1449C9.65128 89.5453 10.0209 89.1428 10.4532 88.9844C10.8856 88.826 11.4611 88.9028 12.0607 89.2572C12.6603 89.6117 12.9493 90.0459 12.986 90.5569C12.991 90.8985 12.8166 91.4164 12.4622 92.016C12.4762 92.0242 12.3855 92.1776 12.3855 92.1776ZM12.1473 91.4347C12.3863 91.0303 12.4789 90.7463 12.4548 90.4687C12.4168 90.1828 12.2318 89.9229 11.8832 89.7168C11.5346 89.5107 11.2259 89.46 10.926 89.4897C10.6154 89.5695 10.3225 89.8104 10.0835 90.2148L12.1473 91.4347Z" fill="#2A3E4E"/>
<path d="M13.4126 95.0233L13.1616 94.875C12.6596 94.5782 12.5342 94.0901 12.8556 93.5463L15.1471 89.6698L14.5893 89.34L14.8613 88.8799L15.9211 89.5063L13.3576 93.843C13.2093 94.094 13.2162 94.3051 13.4254 94.4287L13.6764 94.5771L13.4126 95.0233Z" fill="#2A3E4E"/>
<path d="M15.2811 96.1285L15.0301 95.9801C14.5281 95.6834 14.4585 95.2282 14.7799 94.6844L15.9998 92.6206C16.0328 92.5649 16.0905 92.4673 16.204 92.4026L15.6044 92.0482L15.8764 91.588L16.9362 92.2145L15.3288 94.9336C15.1805 95.1846 15.1874 95.3957 15.3408 95.4864L15.5918 95.6347C15.5778 95.6265 15.2811 96.1285 15.2811 96.1285ZM17.4827 91.258C17.4497 91.3138 17.4497 91.3138 17.394 91.2808L16.8362 90.9511C16.7804 90.9181 16.7804 90.9181 16.8134 90.8624L17.1101 90.3604C17.1431 90.3046 17.1431 90.3046 17.1989 90.3376L17.7566 90.6673C17.8124 90.7002 17.8124 90.7002 17.7795 90.756L17.4827 91.258Z" fill="#2A3E4E"/>
<path d="M20.8632 94.6111L17.4671 97.3642L16.8675 97.0098L17.6421 92.707L18.1999 93.0367L17.6124 96.227C17.6105 96.3576 17.5287 96.5915 17.3803 96.8425C17.438 96.7449 17.6174 96.5687 17.8634 96.3754L20.3752 94.3226L20.8632 94.6111Z" fill="#2A3E4E"/>
<path d="M23.2202 98.5819L20.5987 97.0323C20.3267 97.4925 20.2512 97.843 20.2809 98.1428C20.3107 98.4427 20.5597 98.7216 20.9502 98.9524C21.4522 99.2491 21.8496 99.2771 22.2509 99.0439L22.5957 99.5111C22.0479 99.8647 21.4394 99.8437 20.6864 99.3986C20.1286 99.0689 19.7731 98.6518 19.7034 98.1966C19.6338 97.7415 19.7442 97.2046 20.1316 96.5492C20.486 95.9496 20.8556 95.5471 21.288 95.3887C21.7203 95.2303 22.2959 95.3071 22.8955 95.6615C23.4951 96.016 23.7841 96.4502 23.8207 96.9612C23.8258 97.3028 23.6514 97.8207 23.2969 98.4203L23.2063 98.5737L23.2202 98.5819ZM22.9262 97.806C23.1652 97.4016 23.2578 97.1176 23.2338 96.84C23.1958 96.5541 23.0107 96.2942 22.6621 96.0881C22.3135 95.882 22.0048 95.8313 21.705 95.861C21.3944 95.9409 21.1015 96.1817 20.8624 96.5861L22.9262 97.806Z" fill="#2A3E4E"/>
<path d="M26.6204 98.5592C26.5228 98.5015 26.4581 98.3881 26.3466 98.3221C26.0398 98.1408 25.7311 98.09 25.4123 98.1838L25.1264 98.2218L23.552 100.885L23.05 100.588L25.1354 97.0605L25.5398 97.2995L25.4313 97.7058L25.8865 97.6362C26.1724 97.5982 26.4063 97.68 26.6573 97.8284C26.7549 97.8861 26.8525 97.9438 26.9311 98.0655C26.9171 98.0572 26.6204 98.5592 26.6204 98.5592Z" fill="#2A3E4E"/>
<path d="M30.4848 100.299L26.2042 103.752C25.9582 103.946 25.77 104.041 25.5589 104.048C25.3478 104.055 25.0638 103.963 24.757 103.781L24.2969 103.509L24.5689 103.049L25.0291 103.321C25.2243 103.436 25.4106 103.471 25.4911 103.462C25.5716 103.454 25.7352 103.4 25.8924 103.229L26.4979 102.778L27.2744 98.3447L27.8322 98.6744L27.2447 101.865C27.2117 101.92 27.1851 102.093 27.0703 102.383C27.2415 102.22 27.374 102.092 27.4399 101.98L29.9517 99.9273L30.4848 100.299Z" fill="#2A3E4E"/>
<path d="M33.5448 106.868L33.1405 106.629L33.2819 106.167L32.9402 106.172C32.4432 106.217 32.0788 106.133 31.8278 105.985C31.4234 105.746 31.1743 105.467 31.1027 105.142C31.0001 104.743 31.1086 104.337 31.3806 103.876L32.7241 101.604L33.2261 101.9L31.8826 104.173C31.4952 104.829 31.5648 105.284 32.0668 105.58C32.3178 105.729 32.6265 105.78 33.0569 105.752L33.5539 105.707L35.1282 103.043L35.6302 103.34L33.5448 106.868Z" fill="#2A3E4E"/>
<path d="M37.4215 109.159L36.9195 108.862L38.263 106.589C38.6175 105.99 38.5808 105.479 38.0788 105.182C37.8278 105.034 37.5191 104.983 37.0887 105.011L36.5917 105.056L35.0173 107.719L34.5153 107.422L36.6007 103.894L37.0051 104.134L36.8637 104.596L37.2054 104.591C37.7023 104.546 38.0668 104.629 38.3178 104.778C38.7222 105.017 38.9155 105.263 39.0429 105.62C39.1455 106.02 39.0618 106.384 38.765 106.886L37.4215 109.159Z" fill="#2A3E4E"/>
<path d="M39.4604 110.421L39.2094 110.272C38.7074 109.976 38.582 109.488 38.9035 108.944L41.1949 105.067L40.6372 104.738L40.9092 104.277L41.9689 104.904L39.4055 109.24C39.2571 109.491 39.264 109.703 39.4732 109.826L39.7242 109.975L39.4604 110.421Z" fill="#2A3E4E"/>
<path d="M41.3707 111.55L41.1197 111.402C40.6177 111.105 40.5481 110.65 40.8695 110.106L42.0894 108.043C42.1224 107.987 42.1801 107.889 42.2936 107.824L41.694 107.47L41.966 107.01L43.0258 107.636L41.4184 110.355C41.2701 110.606 41.277 110.818 41.4304 110.908L41.6814 111.057L41.3847 111.559L41.3707 111.55ZM43.5305 106.655C43.5058 106.697 43.5058 106.697 43.5305 106.655L42.8979 106.356C42.8421 106.324 42.8421 106.324 42.8751 106.268L43.1718 105.766C43.2048 105.71 43.2048 105.71 43.2606 105.743L43.8184 106.073C43.8741 106.106 43.8741 106.106 43.8412 106.161L43.5444 106.663L43.5305 106.655Z" fill="#2A3E4E"/>
<path d="M46.8895 114.756L46.3875 114.46L47.7311 112.187C48.1185 111.531 48.1046 111.109 47.7421 110.895C47.4911 110.746 47.1824 110.696 46.6854 110.741L46.3437 110.746C46.286 110.843 46.2511 111.03 46.1275 111.239L44.7839 113.512L44.2819 113.215L45.6255 110.942C46.0129 110.287 45.999 109.864 45.5946 109.625C45.3994 109.51 45.0349 109.426 44.5798 109.496L44.1576 109.51L42.5833 112.173L42.0813 111.877L44.1667 108.349L44.5711 108.588L44.4296 109.05L44.7713 109.045C45.2683 109 45.6327 109.083 45.828 109.199C46.2881 109.471 46.4656 109.839 46.4604 110.325L46.8268 110.279C47.1127 110.241 47.3238 110.234 47.4353 110.3C47.6217 110.334 47.8416 110.408 48.0508 110.532C48.762 110.952 48.8804 111.643 48.3199 112.591L47.0093 114.808C46.9871 114.814 46.8895 114.756 46.8895 114.756Z" fill="#2A3E4E"/>
<path d="M49.0262 116.076L48.7752 115.927C48.2732 115.631 48.2036 115.176 48.525 114.632L49.745 112.568C49.7779 112.512 49.8356 112.415 49.9491 112.35L49.3495 111.995L49.6215 111.535L50.6813 112.162L49.074 114.881C48.9256 115.132 48.9325 115.343 49.0859 115.434L49.3369 115.582L49.0402 116.084L49.0262 116.076ZM51.2278 111.205C51.2031 111.247 51.2031 111.247 51.2278 111.205L50.5953 110.907C50.5395 110.874 50.5395 110.874 50.5725 110.818L50.8692 110.316C50.9022 110.26 50.9022 110.26 50.9579 110.293L51.5157 110.623C51.5715 110.656 51.5715 110.656 51.5385 110.712L51.2418 111.214L51.2278 111.205Z" fill="#2A3E4E"/>
<path d="M52.1029 117.556C51.7365 117.603 51.322 117.508 50.8618 117.236C50.2622 116.882 50.1368 116.394 50.5242 115.738L51.6864 113.772C51.7194 113.716 51.7771 113.619 51.8905 113.554L51.2352 113.167L51.5072 112.706L52.1068 113.061L52.8239 111.848L53.4165 111.991L52.6088 113.358L53.8637 114.099L53.4384 114.469L52.3368 113.818L51.0262 116.035C50.9108 116.23 50.8759 116.416 50.9075 116.586C50.9475 116.741 51.1008 116.832 51.31 116.955C51.5192 117.079 51.6916 117.106 51.9832 117.09L52.1029 117.556Z" fill="#2A3E4E"/>
<path d="M56.4634 118.232L53.8418 116.683C53.5698 117.143 53.4943 117.493 53.5241 117.793C53.5621 118.079 53.8029 118.372 54.1933 118.603C54.6953 118.9 55.0928 118.927 55.4941 118.694L55.8388 119.162C55.2911 119.515 54.6826 119.494 53.9296 119.049C53.3718 118.719 53.0163 118.302 52.9466 117.847C52.8769 117.392 52.9873 116.855 53.3747 116.2C53.7292 115.6 54.0988 115.198 54.5311 115.039C54.9635 114.881 55.539 114.957 56.1386 115.312C56.7382 115.666 57.0272 116.101 57.0639 116.612C57.0689 116.953 56.8945 117.471 56.5401 118.071C56.554 118.079 56.4634 118.232 56.4634 118.232ZM56.1694 117.456C56.4084 117.052 56.501 116.768 56.4769 116.49C56.4529 116.213 56.2539 115.945 55.9053 115.739C55.5567 115.532 55.248 115.482 54.9481 115.511C54.6375 115.591 54.3446 115.832 54.1056 116.236L56.1694 117.456Z" fill="#2A3E4E"/>
<path d="M59.2303 122.051L58.9235 121.869L58.9515 121.472C58.4963 121.542 58.0571 121.489 57.7084 121.283C57.2483 121.011 56.9485 120.627 56.8459 120.227C56.6786 119.714 56.822 119.122 57.2094 118.466C57.9512 117.211 58.8159 116.895 59.8757 117.521C60.2243 117.727 60.5291 118.039 60.7294 118.496C60.7313 118.365 60.789 118.268 60.8549 118.156L61.7699 116.608L62.2719 116.905L59.2303 122.051ZM59.1487 121.043L60.4263 118.881C60.266 118.58 60.0815 118.414 60.0397 118.389C59.8775 118.218 59.7488 118.086 59.5954 117.995C59.2468 117.789 58.9381 117.738 58.5806 117.866C58.2788 118.026 57.9751 118.317 57.6784 118.819C57.1097 119.781 57.1615 120.489 57.9145 120.934C58.1985 121.027 58.5959 121.055 59.1487 121.043Z" fill="#2A3E4E"/>
<defs>
<clipPath id="clip0_307_9584">
<rect width="50" height="50" fill="white" transform="translate(118 95)"/>
</clipPath>
<clipPath id="clip1_307_9584">
<rect width="85.3182" height="37.7838" fill="white" transform="translate(136 52.2256) rotate(-37.7432)"/>
</clipPath>
</defs>
</svg>
