<svg width="120" height="120" viewBox="0 0 120 120" fill="none" xmlns="http://www.w3.org/2000/svg">
<rect width="120" height="120" fill="#F5F5F5"/>
<path d="M-2000 -1832C-2000 -1833.1 -1999.1 -1834 -1998 -1834H2442C2443.1 -1834 2444 -1833.1 2444 -1832V803C2444 804.104 2443.1 805 2442 805H-1998C-1999.1 805 -2000 804.104 -2000 803V-1832Z" fill="#ADBDCB"/>
<path d="M-1998 -1833H2442V-1835H-1998V-1833ZM2443 -1832V803H2445V-1832H2443ZM2442 804H-1998V806H2442V804ZM-1999 803V-1832H-2001V803H-1999ZM-1998 804C-1998.55 804 -1999 803.552 -1999 803H-2001C-2001 804.657 -1999.66 806 -1998 806V804ZM2443 803C2443 803.552 2442.55 804 2442 804V806C2443.66 806 2445 804.657 2445 803H2443ZM2442 -1833C2442.55 -1833 2443 -1832.55 2443 -1832H2445C2445 -1833.66 2443.66 -1835 2442 -1835V-1833ZM-1998 -1835C-1999.66 -1835 -2001 -1833.66 -2001 -1832H-1999C-1999 -1832.55 -1998.55 -1833 -1998 -1833V-1835Z" fill="black" fill-opacity="0.1"/>
<g clip-path="url(#clip0_307_2645)">
<rect width="430" height="956" transform="translate(-155 -300)" fill="#EDF1F4"/>
<circle opacity="0.3" cx="60" cy="60" r="60" fill="#C8D3DC"/>
<g clip-path="url(#clip1_307_2645)">
<path fill-rule="evenodd" clip-rule="evenodd" d="M60.8225 57.7588H93.8046C95.9376 57.7588 97.6667 59.4879 97.6667 61.6209V87.368C97.6667 89.5009 95.9376 91.2301 93.8046 91.2301H26.8621C24.7291 91.2301 23 89.5009 23 87.368V61.6209C23 59.4879 24.7291 57.7588 26.8621 57.7588H60.8225Z" fill="#FFB499"/>
<path d="M88.4364 45.5801L83.699 40.0573C83.5273 39.8511 83.2721 39.7329 83.0038 39.7355H64.1826C61.1074 32.3837 53.2712 28.2239 45.4589 29.7961C37.6465 31.3683 32.0294 38.2354 32.0374 46.2044C32.0453 54.1734 37.6762 61.0293 45.4917 62.5858C53.3072 64.1423 61.135 59.9669 64.1955 52.609H68.0447C68.2865 52.6073 68.5179 52.5102 68.6884 52.3387L70.6194 50.4205C70.9375 50.0903 71.4528 50.0515 71.8167 50.3304L74.224 52.1327C74.5905 52.4029 75.0994 52.3646 75.4212 52.0426L77.0562 50.4205C77.3742 50.0903 77.8895 50.0515 78.2534 50.3304L80.5835 52.0683C81.0475 52.4175 81.6121 52.6072 82.1927 52.609C82.9788 52.6062 83.7252 52.2635 84.2396 51.6692L88.4364 46.7644C88.7323 46.4251 88.7323 45.9194 88.4364 45.5801ZM42.3104 50.0343C40.1775 50.0343 38.4484 48.3052 38.4484 46.1722C38.4484 44.0393 40.1775 42.3102 42.3104 42.3102C44.4434 42.3102 46.1725 44.0393 46.1725 46.1722C46.1725 48.3052 44.4434 50.0343 42.3104 50.0343Z" fill="#FF5D21"/>
<path fill-rule="evenodd" clip-rule="evenodd" d="M80.931 46.1724H63.5105C62.7995 46.1724 62.2231 45.596 62.2231 44.885C62.2231 44.174 62.7995 43.5977 63.5105 43.5977H80.931C81.642 43.5977 82.2184 44.174 82.2184 44.885C82.2184 45.596 81.642 46.1724 80.931 46.1724Z" fill="#E8551E"/>
<path fill-rule="evenodd" clip-rule="evenodd" d="M37.7402 72.1319L35.8736 73.36V70.6321C35.8736 69.9211 35.2972 69.3447 34.5862 69.3447C33.8752 69.3447 33.2988 69.9211 33.2988 70.6321V73.36L31.4322 72.1319C31.0481 71.8697 30.5525 71.835 30.1357 72.0411C29.7189 72.2472 29.4456 72.6621 29.4208 73.1264C29.396 73.5908 29.6236 74.0324 30.0161 74.2817L32.5676 75.9553L31.0962 77.4551C30.7369 77.7742 30.5852 78.2668 30.7028 78.7327C30.8205 79.1986 31.1878 79.5602 31.6555 79.6706C32.1231 79.7809 32.6134 79.6216 32.9268 79.2574L34.5862 77.5838L36.2456 79.2574C36.7522 79.7073 37.5208 79.6875 38.0036 79.2122C38.4865 78.7368 38.5182 77.9686 38.0762 77.4551L36.6048 75.9617L39.1563 74.2882C39.7366 73.892 39.8921 73.1036 39.5055 72.5168C39.119 71.93 38.3334 71.7616 37.7402 72.1383V72.1319Z" fill="#FF5D21"/>
<path fill-rule="evenodd" clip-rule="evenodd" d="M50.6138 72.1319L48.7471 73.36V70.6321C48.7471 69.9211 48.1707 69.3447 47.4597 69.3447C46.7488 69.3447 46.1724 69.9211 46.1724 70.6321V73.36L44.3057 72.1319C43.9217 71.8697 43.4261 71.835 43.0092 72.0411C42.5924 72.2472 42.3191 72.6621 42.2943 73.1264C42.2695 73.5908 42.4971 74.0324 42.8896 74.2817L45.4412 75.9553L43.9697 77.4551C43.6104 77.7742 43.4588 78.2668 43.5764 78.7327C43.694 79.1986 44.0613 79.5602 44.529 79.6706C44.9967 79.7809 45.4869 79.6216 45.8003 79.2574L47.4597 77.5838L49.1191 79.2574C49.4326 79.6216 49.9228 79.7809 50.3905 79.6706C50.8582 79.5602 51.2255 79.1986 51.3431 78.7327C51.4607 78.2668 51.309 77.7742 50.9498 77.4551L49.4783 75.9617L52.0299 74.2882C52.6102 73.892 52.7656 73.1036 52.3791 72.5168C51.9926 71.93 51.2069 71.7616 50.6138 72.1383V72.1319Z" fill="#FF5D21"/>
<path fill-rule="evenodd" clip-rule="evenodd" d="M63.4873 72.1319L61.6206 73.36V70.6321C61.6206 69.9211 61.0443 69.3447 60.3333 69.3447C59.6223 69.3447 59.0459 69.9211 59.0459 70.6321V73.36L57.1793 72.1319C56.7952 71.8697 56.2996 71.835 55.8828 72.0411C55.4659 72.2472 55.1926 72.6621 55.1679 73.1264C55.1431 73.5908 55.3706 74.0324 55.7632 74.2817L58.3147 75.9553L56.8433 77.4551C56.484 77.7742 56.3323 78.2668 56.4499 78.7327C56.5675 79.1986 56.9348 79.5602 57.4025 79.6706C57.8702 79.7809 58.3604 79.6216 58.6739 79.2574L60.3333 77.5838L61.9927 79.2574C62.4993 79.7073 63.2679 79.6875 63.7507 79.2122C64.2335 78.7368 64.2653 77.9686 63.8233 77.4551L62.3519 75.9617L64.9034 74.2882C65.4837 73.892 65.6391 73.1036 65.2526 72.5168C64.8661 71.93 64.0804 71.7616 63.4873 72.1383V72.1319Z" fill="#FF5D21"/>
<path fill-rule="evenodd" clip-rule="evenodd" d="M76.3608 72.1319L74.4942 73.36V70.6321C74.4942 69.9211 73.9178 69.3447 73.2068 69.3447C72.4958 69.3447 71.9195 69.9211 71.9195 70.6321V73.36L70.0528 72.1319C69.6687 71.8697 69.1731 71.835 68.7563 72.0411C68.3395 72.2472 68.0662 72.6621 68.0414 73.1264C68.0166 73.5908 68.2442 74.0324 68.6367 74.2817L71.1882 75.9553L69.7168 77.4551C69.3575 77.7742 69.2058 78.2668 69.3235 78.7327C69.4411 79.1986 69.8084 79.5602 70.2761 79.6706C70.7437 79.7809 71.234 79.6216 71.5474 79.2574L73.2068 77.5838L74.8662 79.2574C75.3728 79.7073 76.1414 79.6875 76.6243 79.2122C77.1071 78.7368 77.1388 77.9686 76.6968 77.4551L75.2254 75.9617L77.7769 74.2882C78.3572 73.892 78.5127 73.1036 78.1261 72.5168C77.7396 71.93 76.954 71.7616 76.3608 72.1383V72.1319Z" fill="#FF5D21"/>
<path fill-rule="evenodd" clip-rule="evenodd" d="M91.0174 72.4988C90.6263 71.9052 89.8281 71.7409 89.2344 72.1319L87.3677 73.36V70.6321C87.3677 69.9211 86.7913 69.3447 86.0803 69.3447C85.3694 69.3447 84.793 69.9211 84.793 70.6321V73.36L82.9263 72.1319C82.5423 71.8697 82.0467 71.835 81.6298 72.0411C81.213 72.2472 80.9397 72.6621 80.9149 73.1264C80.8901 73.5908 81.1177 74.0324 81.5102 74.2817L84.0618 75.9553L82.5903 77.4551C82.231 77.7742 82.0794 78.2668 82.197 78.7327C82.3146 79.1986 82.6819 79.5602 83.1496 79.6706C83.6173 79.7809 84.1075 79.6216 84.4209 79.2574L86.0803 77.5838L87.7398 79.2574C88.2463 79.7073 89.015 79.6875 89.4978 79.2122C89.9806 78.7368 90.0123 77.9686 89.5704 77.4551L88.0989 75.9617L90.6505 74.2882C90.9373 74.1003 91.1374 73.8057 91.2063 73.4698C91.2751 73.1339 91.2071 72.7844 91.0174 72.4988Z" fill="#FF5D21"/>
</g>
</g>
<defs>
<clipPath id="clip0_307_2645">
<rect width="430" height="956" fill="white" transform="translate(-155 -300)"/>
</clipPath>
<clipPath id="clip1_307_2645">
<rect width="74.6667" height="74.6667" fill="white" transform="translate(23 23)"/>
</clipPath>
</defs>
</svg>
