<svg width="252" height="252" viewBox="0 0 252 252" fill="none" xmlns="http://www.w3.org/2000/svg">
<circle cx="126" cy="126" r="126" fill="#C8D3DC"/>
<mask id="mask0_307_9723" style="mask-type:alpha" maskUnits="userSpaceOnUse" x="0" y="0" width="252" height="252">
<circle cx="126" cy="126" r="126" fill="#EDEFF0"/>
</mask>
<g mask="url(#mask0_307_9723)">
<g clip-path="url(#clip0_307_9723)">
<path d="M121.625 44.7089C123.431 53.917 111.15 64.0793 94.1956 67.4056C77.2401 70.7319 62.0318 65.9648 60.226 56.7566C58.4202 47.5485 70.7012 37.3862 87.6554 34.0599C104.611 30.7324 119.819 35.5007 121.625 44.7089Z" fill="#708DA5"/>
<path d="M154.544 180.786L154.327 181.683L127.12 166.653C115.927 149.223 109.987 132.714 122.652 119.468L129.434 122.487C138.024 126.311 144.572 133.625 147.428 142.586L153.9 162.888C155.747 168.683 155.97 174.872 154.543 180.784L154.544 180.786Z" fill="#EDF1F4"/>
<path d="M129.5 233.555L55.7267 232.959L54.1066 243.397C53.5482 255.975 58.3581 264.211 71.6085 270.062C83.5587 275.34 93.0837 286.713 93.6158 299.975L99.1038 436.669L124.062 435.971L128.848 248.972L129.5 233.555Z" fill="#2A3E4E"/>
<path d="M87.5332 273.052L48.6891 436.67H24.4458L55.766 233.469L56.0308 233.7L80.1339 233.555L87.5332 273.052Z" fill="#2A3E4E"/>
<path d="M55.6689 233.555H129.569V224.383C106.952 219.491 81.8822 221.32 56.3627 224.383L55.6689 233.555Z" fill="#2B343C"/>
<path d="M121.697 118.755C127.628 122.344 131.009 128.991 130.419 135.9L129.922 141.723C128.998 152.541 128.66 163.396 128.908 174.239L130.062 224.604H56.8566C54.0934 219.908 52.3715 214.538 52.4279 209.065L52.5573 196.629C52.8005 173.367 49.0583 150.297 41.5117 128.416C40.009 124.057 41.9131 119.252 45.95 117.027L84.1004 96L121.697 118.755Z" fill="#EDF1F4"/>
<path d="M63.5117 149.867L73.7029 152.373L83.2674 149.867C85.5226 149.276 86.8958 147.178 86.5998 144.773L85.9671 139.619H58.2944L58.9271 144.773C59.2219 147.178 61.1104 149.277 63.5117 149.867Z" fill="#ADBDCB"/>
<path d="M114.719 149.866C112.318 149.275 110.43 147.178 110.135 144.773L109.502 139.62H129.589L129.428 141.504C129.148 144.788 128.939 148.074 128.768 151.363L124.912 152.374L114.719 149.868V149.866Z" fill="#ADBDCB"/>
<path d="M101.796 160.505C110.928 161.224 120.692 164.262 128.375 169.783C128.387 171.195 128.382 172.608 128.415 174.02L128.731 187.825C111.224 176.627 85.0206 181.912 66.5961 187.848C63.1799 188.948 56.1568 192.514 52.0636 192.553C52.0084 186.124 51.6454 179.716 50.9863 173.348C61.6209 159.695 86.4058 159.292 101.797 160.505H101.796Z" fill="#ADBDCB"/>
<path d="M53.3575 112.453L40.2689 119.185C32.9847 122.931 29.0795 131.014 30.5414 139.077C33.6509 156.226 38.988 171.418 51.6824 181.683L54.2838 178.431C63.1174 167.387 69.3807 162.7 65.1736 149.196L53.3575 112.453Z" fill="#EDF1F4"/>
<path d="M97.3124 124.719L102.322 117.622L93.1197 111.458L80.1772 118.473L88.9018 125.807C91.4829 127.977 95.3676 127.475 97.3124 124.72V124.719Z" fill="#ADBDCB"/>
<path d="M108.632 209.685L103.636 215.967C102.981 216.789 101.751 216.84 101.032 216.075L95.334 210.019C94.5611 209.197 94.1297 208.111 94.1297 206.982V161.913C94.1297 158.539 93.9703 155.168 93.6528 151.81L90.9268 123.027H94.6474L99.8718 134.439C106.28 148.435 109.597 163.649 109.597 179.043V206.926C109.597 207.928 109.258 208.901 108.633 209.685H108.632Z" fill="#2A3E4E"/>
<path d="M74.2734 112.356C76.8137 115.583 79.6716 118.075 81.5792 119.674C82.8398 120.731 84.6767 120.702 85.911 119.614L92.8621 113.483L99.0523 118.444C100.145 119.32 101.772 118.91 102.321 117.621C102.848 116.382 103.371 115.084 103.581 114.494C105.069 110.318 104.025 105.652 101.115 102.309C99.2944 100.218 97.4646 98.1156 97.4382 98.0389L76.2721 94.8828L73.4286 99.7782C71.1232 103.749 71.4323 108.748 74.2722 112.356H74.2734Z" fill="#EDF1F4"/>
<path d="M75.8563 80.1485C76.495 74.0569 82.007 69.5691 88.1696 70.3266L89.3955 70.4765C97.0631 71.4174 102.556 78.3409 101.729 86.0244L99.9342 102.701C99.6718 105.144 98.6257 107.436 96.9529 109.235L93.0418 113.443L79.7698 104.268C76.6651 102.121 74.8941 98.5193 75.0882 94.7495L75.8443 80.1461H75.8575L75.8563 80.1485Z" fill="#FFB499"/>
<path d="M76.0216 61.5877C72.2771 61.5877 69.5522 65.2328 70.7002 68.7989C70.923 69.4917 71.1866 70.1737 71.4898 70.8426L73.5928 75.4623C75.3278 79.2728 79.5625 81.2686 83.6055 80.1826L108.449 73.5036C109.076 73.3346 109.723 73.2987 110.371 73.2615C112.644 73.1344 114.825 71.9358 116.123 70.0479C119.624 64.9572 116.229 58.2698 110.054 57.9258L76.0228 61.5889L76.0216 61.5877Z" fill="#202F3C"/>
<path d="M76.8184 77.8797L77.8525 64.4822C78.7117 59.5317 83.059 55.9513 88.0809 56.058L102.164 56.3577C107.898 56.4799 112.91 60.5961 113.779 66.267C114.003 67.733 114.068 69.2493 113.956 70.7968L112.704 88.1175C112.384 92.5394 110.207 96.3979 106.978 98.9642C104.249 101.134 100.769 102.38 97.0259 102.265C89.4565 102.033 82.4395 98.2438 78.0934 92.0407C76.3463 89.5475 75.6106 86.4837 76.0347 83.4691L76.8196 77.8797H76.8184Z" fill="#FFCDBA"/>
<path d="M76.9143 89.8603C73.3435 90.2871 69.8937 86.3507 69.0861 80.9303C68.5145 77.0958 70.3718 73.785 72.9373 74.0643C74.9504 74.2837 76.6926 76.717 77.0042 79.7436L77.8549 88.0228C77.952 88.9721 77.535 89.786 76.9143 89.8603Z" fill="#FFCDBA"/>
<path d="M75.2498 79.5681C74.3715 79.5333 73.6861 78.7913 73.7221 77.9115L73.9006 73.4105C73.9365 72.5319 74.6771 71.8463 75.5554 71.8822C76.4349 71.917 77.1191 72.6589 77.0832 73.5376L76.9034 78.0386C76.8687 78.9184 76.127 79.6028 75.2486 79.5669L75.2498 79.5681Z" fill="#202F3C"/>
<path d="M103.455 87.8162C104.76 87.4171 105.737 89.082 104.424 89.848C100.533 92.1182 95.6348 92.0847 91.8063 89.836C90.5026 89.07 91.49 87.4159 92.7865 87.8138C96.9564 89.0928 99.2835 89.0928 103.456 87.8162H103.455Z" fill="#E8551E"/>
<path d="M99.5327 174.604C120.249 180.514 142.731 184.118 154.328 181.683C155.887 175.22 155.398 168.431 152.929 162.258C151.034 157.523 146.877 154.02 141.865 153.093C130.617 151.012 117.731 153.68 104.249 158.069L99.5327 174.604Z" fill="#EDF1F4"/>
<path d="M104.248 158.069C99.1552 159.727 83.1955 165.333 77.9902 167.318C84.51 169.936 91.9009 172.426 99.5326 174.604C106.449 169.705 107.433 164.125 104.249 158.069H104.248Z" fill="#EDF1F4"/>
<path d="M95.528 150.629C96.7623 150.584 98.35 150.563 100.007 150.556C104.779 150.538 109.47 148.65 112.551 145.005C114.259 142.984 116.611 141.598 120.16 141.365C127.181 140.903 131.728 146.075 133.454 152.377L121.451 153.632C115.468 154.431 109.75 156.595 104.734 159.955L99.3877 163.536L95.5269 150.63L95.528 150.629Z" fill="#FFB499"/>
<path d="M87.822 171.284L82.3819 174.928C75.5542 179.502 67.497 181.893 59.2793 181.783L51.6812 181.681L55.0483 163.62C55.8319 159.42 58.9882 156.056 63.1306 155.016C69.2525 153.477 75.5554 152.368 82.0152 151.632L87.8208 171.284H87.822Z" fill="#EDF1F4"/>
<path d="M82.0166 151.632C86.449 151.128 90.9544 150.799 95.5282 150.629L99.389 163.535L87.8222 171.284L82.0166 151.632Z" fill="#EDF1F4"/>
<path d="M93.1639 129.53L97.5459 121.887C98.6088 120.032 98.157 117.679 96.4806 116.351L94.8199 115.034C93.6851 114.135 92.071 114.175 90.9818 115.128L88.1815 117.58C86.7208 118.859 86.5159 121.058 87.7142 122.585L93.1651 129.529L93.1639 129.53Z" fill="#2A3E4E"/>
<path d="M69.043 144.561C66.8669 140.719 62.0811 139.024 58.0968 140.923C57.8848 141.024 57.6823 141.132 57.4905 141.245C50.4999 145.408 57.1898 152.509 62.8599 153.752C65.6243 154.358 69.8758 153.749 73.7042 152.791L69.043 144.561Z" fill="#FFB499"/>
<path d="M90.5002 224.345V233.516H104.317C105.927 233.516 107.232 232.212 107.232 230.601V227.259C107.232 225.649 105.928 224.345 104.317 224.345H90.5002Z" fill="#456681"/>
<path d="M104.769 71.5648C104.089 72.5297 104.317 73.8638 105.281 74.5447C106.245 75.2267 107.579 74.9966 108.26 74.0329C108.941 73.0679 108.711 71.7338 107.748 71.053C106.783 70.3721 105.45 70.6011 104.769 71.5648Z" fill="#202F3C"/>
<path d="M86.3314 71.5648C85.6508 72.5297 85.8797 73.8638 86.8431 74.5447C87.8077 75.2267 89.1413 74.9966 89.8219 74.0329C90.5038 73.0679 90.2737 71.7338 89.3103 71.053C88.3457 70.3721 87.012 70.6011 86.3314 71.5648Z" fill="#202F3C"/>
<path d="M30 137.02C31.6009 136.108 33.2952 135.366 35.0986 134.857C38.3567 133.936 41.7046 133.78 45.0442 134.279L47.3748 142.537C48.5467 146.69 48.1777 150.957 46.3994 153.804L42.2978 160.372L35.3694 156.92C35.0962 156.783 34.8302 156.614 34.5654 156.445C32.6937 151.022 31.3121 145.234 30.2169 139.195C30.0851 138.468 30.0467 137.744 30 137.022V137.02Z" fill="#ADBDCB"/>
<path d="M46.0194 121.375L62.9521 112.438C65.5799 111.052 67.0178 108.132 66.5145 105.202L39.3511 119.308C40.6212 121.722 43.6085 122.648 46.0194 121.375Z" fill="#2A3E4E"/>
<path d="M126.863 126.514L109.988 117.074C107.369 115.609 106 112.647 106.595 109.734L133.674 124.649C132.317 127.024 129.266 127.859 126.863 126.514Z" fill="#2A3E4E"/>
<path d="M66.4295 135.823H78.9801C80.527 135.823 81.7816 134.568 81.7816 133.02C81.7816 131.473 80.527 130.218 78.9801 130.218H66.4295C64.8825 130.218 63.6279 131.473 63.6279 133.02C63.6279 134.568 64.8825 135.823 66.4295 135.823Z" fill="#FF5D21"/>
<path d="M114.009 57.4288L78.574 57.3545V62.1204L118.438 63.8908C119.904 63.9555 120.552 62.0676 119.354 61.219L114.01 57.43L114.009 57.4288Z" fill="#202F3C"/>
<path d="M111.718 48.4365C102.685 48.4365 93.6839 49.5165 84.9078 51.6525L77.4546 53.4673C72.7981 54.6013 70.0122 59.3731 71.3135 63.9868L82.933 60.9997C92.1549 58.6288 101.639 57.4289 111.161 57.4289H114.01L111.719 48.4365H111.718Z" fill="#2A3E4E"/>
<path d="M103.457 55.8228C100.822 55.8228 98.5718 53.9205 98.1332 51.3218L96.9937 44.5781H105.385L106.647 52.0482C106.981 54.0236 105.459 55.824 103.457 55.824V55.8228Z" fill="#EDF1F4"/>
<path d="M147.685 170.331L223.608 174.961V253.214L147.685 248.582V170.331Z" fill="#E8551E"/>
<path d="M147.685 170.331L116.918 174.961V253.214L147.685 248.582V170.331Z" fill="#E8551E"/>
<path d="M192.841 257.845L116.918 253.214V174.962L192.841 179.594V257.845Z" fill="#FF5D21"/>
<path d="M192.842 257.845L223.608 253.214V174.962L192.842 179.594V257.845Z" fill="#E8551E"/>
<g style="mix-blend-mode:overlay" opacity="0.15">
<path d="M192.841 179.594L116.918 174.962V186.501L192.841 191.133L223.608 186.501V174.962L192.841 179.594Z" fill="#202F3C"/>
</g>
<path d="M146.687 160.983L114.009 165.903V183.077L146.687 178.159V160.983Z" fill="#E8551E"/>
<path d="M146.687 160.983L225.476 165.903V183.077L146.687 178.159V160.983Z" fill="#E8551E"/>
<path d="M192.797 187.996L114.009 183.077V165.902L192.797 170.82V187.996Z" fill="#FF5D21"/>
<path d="M192.797 187.996L225.476 183.077V165.902L192.797 170.82V187.996Z" fill="#E8551E"/>
<path d="M114.009 165.903L146.687 160.983L225.476 165.903L192.797 170.821L114.009 165.903Z" fill="#FF926A"/>
<path d="M169.922 211.776L170.506 207.947H161.244V207.952H161.24L154.648 217.188L148.055 207.952H148.05V207.947H138.794L139.377 211.776H145.491L152.002 220.901L151.978 220.935L152.002 220.968L145.491 230.094L142.148 229.936L142.702 233.572L143 233.721L148.051 233.918V233.913L148.056 233.918L154.649 224.677L161.241 233.918L161.246 233.913V233.918L166.297 233.721L166.599 233.572L167.154 229.936L163.805 230.094L157.295 220.968L157.324 220.935L157.295 220.901L163.805 211.776H169.923H169.922Z" fill="white"/>
<path d="M180.232 203.876L176.787 202.724L155.997 195.772L154.634 195.316L153.27 195.772L132.479 202.719L132.493 202.724L129.05 203.876L129.07 204.01L129.05 204.018L129.409 206.382C129.417 206.385 129.426 206.387 129.434 206.39L129.6 207.473L133.565 233.492C133.556 233.496 133.549 233.502 133.542 233.507L133.633 234.102L133.968 236.308L135.959 237.307L152.712 245.717L154.64 246.685L156.568 245.717L173.321 237.307L175.311 236.308L175.646 234.102L179.683 207.614L180.233 204.015L180.213 204.008L180.233 203.874L180.232 203.876ZM171.957 229.777C171.95 229.768 171.944 229.759 171.937 229.75L171.391 233.311L154.638 241.72L137.886 233.311L133.869 206.959L154.644 200.013L175.41 206.957L175.167 208.56C175.177 208.553 175.185 208.547 175.195 208.54L171.958 229.778L171.957 229.777Z" fill="white"/>
</g>
</g>
<defs>
<clipPath id="clip0_307_9723">
<rect width="210.476" height="425" fill="white" transform="translate(15 33)"/>
</clipPath>
</defs>
</svg>
