<?xml version="1.0" encoding="UTF-8"?>
<svg xmlns="http://www.w3.org/2000/svg" xmlns:xlink="http://www.w3.org/1999/xlink" width="21px" height="21px" viewBox="0 0 21 21" version="1.1">
<g id="surface1">
<path style=" stroke:none;fill-rule:nonzero;fill:rgb(0%,0%,0%);fill-opacity:1;" d="M 10.5 16.214844 C 8.136719 16.214844 5.597656 15.289062 3.148438 13.542969 C 1.320312 12.238281 0.191406 10.941406 0.144531 10.890625 C -0.046875 10.664062 -0.046875 10.335938 0.144531 10.109375 C 0.191406 10.058594 1.320312 8.761719 3.148438 7.457031 C 5.597656 5.710938 8.136719 4.785156 10.5 4.785156 C 12.863281 4.785156 15.402344 5.710938 17.851562 7.457031 C 19.679688 8.761719 20.808594 10.058594 20.855469 10.109375 C 21.046875 10.335938 21.046875 10.664062 20.855469 10.890625 C 20.808594 10.941406 19.679688 12.238281 17.851562 13.542969 C 15.402344 15.289062 12.863281 16.214844 10.5 16.214844 Z M 1.40625 10.5 C 1.863281 10.964844 2.726562 11.785156 3.863281 12.59375 C 5.421875 13.703125 7.839844 15.027344 10.5 15.027344 C 13.160156 15.027344 15.578125 13.703125 17.136719 12.59375 C 18.273438 11.785156 19.136719 10.964844 19.59375 10.5 C 19.136719 10.035156 18.273438 9.214844 17.136719 8.40625 C 15.578125 7.296875 13.160156 5.972656 10.5 5.972656 C 7.839844 5.972656 5.421875 7.296875 3.863281 8.40625 C 2.726562 9.214844 1.863281 10.035156 1.40625 10.5 Z M 1.40625 10.5 "/>
<path style=" stroke:none;fill-rule:nonzero;fill:rgb(0%,0%,0%);fill-opacity:1;" d="M 10.5 14.183594 C 8.46875 14.183594 6.816406 12.53125 6.816406 10.5 C 6.816406 8.46875 8.46875 6.816406 10.5 6.816406 C 11.394531 6.816406 12.253906 7.140625 12.925781 7.730469 C 13.171875 7.945312 13.195312 8.320312 12.980469 8.566406 C 12.765625 8.816406 12.390625 8.839844 12.140625 8.625 C 11.6875 8.226562 11.105469 8.007812 10.5 8.007812 C 9.125 8.007812 8.003906 9.125 8.003906 10.5 C 8.003906 11.875 9.125 12.996094 10.5 12.996094 C 11.875 12.996094 12.992188 11.875 12.992188 10.5 C 12.992188 10.171875 13.261719 9.90625 13.589844 9.90625 C 13.914062 9.90625 14.183594 10.171875 14.183594 10.5 C 14.183594 12.53125 12.53125 14.183594 10.5 14.183594 Z M 10.5 14.183594 "/>
<path style=" stroke:none;fill-rule:nonzero;fill:rgb(0%,0%,0%);fill-opacity:1;" d="M 10.5 11.6875 C 9.84375 11.6875 9.3125 11.15625 9.3125 10.5 C 9.3125 9.84375 9.84375 9.3125 10.5 9.3125 C 11.15625 9.3125 11.6875 9.84375 11.6875 10.5 C 11.6875 11.15625 11.15625 11.6875 10.5 11.6875 Z M 10.5 11.6875 "/>
</g>
</svg>
