<svg width="75" height="75" viewBox="0 0 75 75" fill="none" xmlns="http://www.w3.org/2000/svg">
<path d="M69.8136 30.1477C68.8509 29.5013 67.9813 28.726 67.2295 27.8432C67.2854 26.614 67.5324 25.4011 67.9619 24.2482C68.7691 21.5155 69.7745 18.1144 67.8369 15.4531C65.8853 12.7706 62.3202 12.6806 59.456 12.6074C58.2511 12.6555 57.0458 12.5259 55.8786 12.2228C55.2369 11.2162 54.7469 10.1206 54.4245 8.9712C53.4688 6.24949 52.2783 2.86197 49.0899 1.82584C45.9962 0.820347 43.2197 2.7307 40.7716 4.41062C39.7878 5.19614 38.6833 5.81706 37.5009 6.24937C36.3178 5.81755 35.2127 5.19651 34.2287 4.41062C31.7805 2.72922 29.0033 0.824899 25.9103 1.82584C22.7228 2.86197 21.5327 6.24777 20.5759 8.9701C20.2541 10.1137 19.7695 11.2052 19.137 12.211C17.9661 12.5233 16.7548 12.6566 15.5441 12.6063C12.6801 12.6793 9.11489 12.7695 7.16333 15.4519C5.22579 18.1146 6.23103 21.5157 7.03833 24.2487C7.46277 25.3956 7.71202 26.5998 7.7776 27.8209C7.0291 28.7162 6.15636 29.4999 5.18593 30.1478C2.875 31.9102 0 34.1042 0 37.4994C0 40.8945 2.875 43.0886 5.18642 44.8511C6.1491 45.4974 7.01865 46.2728 7.77046 47.1556C7.71461 48.3848 7.46757 49.5975 7.03808 50.7505C6.23091 53.4833 5.22554 56.8846 7.16308 59.5457C9.11465 62.2282 12.6798 62.3182 15.544 62.3915C16.7489 62.3434 17.9542 62.473 19.1214 62.7761C19.7631 63.7827 20.2531 64.8784 20.5755 66.0277C21.5323 68.7499 22.7225 72.1371 25.9107 73.1734C26.4755 73.3586 27.0663 73.4528 27.6607 73.4527C30.0602 73.4527 32.2513 71.9466 34.229 70.5886C35.2128 69.8029 36.3173 69.1818 37.4999 68.7494C38.6829 69.1812 39.788 69.8023 40.7723 70.5882C43.2203 72.2696 45.9968 74.1724 49.0905 73.1729C52.278 72.1368 53.4682 68.751 54.425 66.0287C54.7468 64.885 55.2314 63.7935 55.8639 62.7878C57.0347 62.4754 58.246 62.3422 59.4567 62.3925C62.3208 62.3194 65.886 62.2293 67.8375 59.5469C69.7751 56.8843 68.7698 53.483 67.9625 50.7501C67.5381 49.6032 67.2888 48.399 67.2233 47.1779C67.9717 46.2826 68.8445 45.4989 69.8149 44.8509C72.1249 43.0886 74.9999 40.8945 74.9999 37.4994C75 34.1042 72.125 31.9102 69.8136 30.1477ZM51.4283 31.8964L35.8032 47.5214C34.5833 48.7417 32.6052 48.742 31.3849 47.5221C31.3846 47.5219 31.3844 47.5216 31.3841 47.5214L23.5716 39.7088C22.3358 38.504 22.3107 36.5255 23.5155 35.2897C24.7203 34.0539 26.6988 34.0288 27.9346 35.2336C27.9535 35.2521 27.9722 35.2708 27.9907 35.2897L33.5937 40.8928L47.0092 27.4772C48.214 26.2414 50.1925 26.2164 51.4283 27.4212C52.6641 28.626 52.6891 30.6045 51.4843 31.8403C51.4658 31.8594 51.4471 31.878 51.4283 31.8964Z" fill="#4C708E"/>
</svg>
