<svg width="18" height="18" viewBox="0 0 18 18" fill="none" xmlns="http://www.w3.org/2000/svg">
<path d="M11.5993 14.2723C11.7551 14.2757 11.9082 14.2305 12.0372 14.143C12.1661 14.0554 12.2646 13.9297 12.3189 13.7836C12.3732 13.6375 12.3806 13.4781 12.3401 13.3275C12.2996 13.177 12.2132 13.0429 12.0929 12.9437L7.50358 9.01208L12.0929 5.08183C12.1761 5.02067 12.2458 4.94304 12.2976 4.85371C12.3494 4.76438 12.3822 4.66529 12.3939 4.5627C12.4057 4.46011 12.3961 4.35622 12.3658 4.2575C12.3355 4.15879 12.2852 4.06735 12.218 3.98899C12.1507 3.91062 12.068 3.84706 11.9751 3.80213C11.8821 3.75721 11.7808 3.73198 11.6776 3.728C11.5745 3.72402 11.4716 3.74132 11.3754 3.77895C11.2793 3.81658 11.1919 3.87365 11.1188 3.9466L5.86442 8.44226C5.78191 8.51267 5.71565 8.60007 5.67022 8.69858C5.62478 8.79708 5.60125 8.90429 5.60125 9.01277C5.60125 9.12124 5.62478 9.22846 5.67022 9.32696C5.71565 9.42546 5.78191 9.51295 5.86442 9.58337L11.1188 14.0833C11.2516 14.2012 11.4218 14.2681 11.5993 14.2723Z" fill="#FF5D21"/>
</svg>
